<svg id="Layer_1" data-name="Layer 1" xmlns="http://www.w3.org/2000/svg" xmlns:xlink="http://www.w3.org/1999/xlink" viewBox="0 0 477.85 98.706"><defs><style>.cls-1{fill:url(#linear-gradient);}.cls-2{fill:#fff;}</style><linearGradient id="linear-gradient" x1="238.925" y1="574.757" x2="238.925" y2="453.609" gradientTransform="matrix(1, 0, 0, -1, 0, 549.178)" gradientUnits="userSpaceOnUse"><stop offset="0" stop-color="#8dc640"/><stop offset="1" stop-color="#669540"/></linearGradient></defs><title>header-5-top</title><path class="cls-1" d="M20.331,87.165c.916,4.622,5.356,8.4,9.868,8.4h417.45c4.512,0,8.953-3.782,9.868-8.4L474.786,0H3.064Z"/><path class="cls-2" d="M457.519,87.165c-.916,4.622-5.357,8.4-9.868,8.4H30.2c-4.512,0-8.953-3.782-9.868-8.4L3.064,0H0L17.394,87.8C18.6,93.916,24.231,98.706,30.2,98.706H447.65c5.969,0,11.594-4.79,12.806-10.906L477.85,0h-3.064Z"/><path class="cls-2" d="M36.543,23.191H67.976v9.755H57.156V76.522H47.12V32.946H36.543Z"/><path class="cls-2" d="M165.692,32.329l-6.919,6.6q-7.064-7.462-15.889-7.462a17.4,17.4,0,0,0-17.65,17.146q0,.25,0,.5a18.583,18.583,0,0,0,2.257,9.233,16.178,16.178,0,0,0,6.391,6.33,18.527,18.527,0,0,0,9.18,2.3,18.922,18.922,0,0,0,7.873-1.609,28.234,28.234,0,0,0,7.837-5.853l6.7,7a36.7,36.7,0,0,1-10.882,7.8,29.681,29.681,0,0,1-11.7,2.175q-12.118,0-19.842-7.684t-7.72-19.7a26.943,26.943,0,0,1,3.516-13.814,26.11,26.11,0,0,1,10.072-9.733,28.387,28.387,0,0,1,14.114-3.675,29.957,29.957,0,0,1,22.651,10.445Z"/><path class="cls-2" d="M116.655,32.329l-6.919,6.6q-7.06-7.462-15.886-7.462A17.406,17.406,0,0,0,76.2,48.622q0,.246,0,.492a18.568,18.568,0,0,0,2.26,9.233,16.164,16.164,0,0,0,6.393,6.33,18.514,18.514,0,0,0,9.179,2.3,18.913,18.913,0,0,0,7.872-1.609,28.2,28.2,0,0,0,7.836-5.853l6.706,7a36.714,36.714,0,0,1-10.882,7.8,29.672,29.672,0,0,1-11.7,2.175q-12.118,0-19.841-7.684T66.3,49.106a26.943,26.943,0,0,1,3.516-13.814,26.131,26.131,0,0,1,10.072-9.719A28.389,28.389,0,0,1,94,21.9a29.956,29.956,0,0,1,22.65,10.445Z"/><rect class="cls-2" x="185.685" y="31.404" width="2.985" height="38.94"/><path class="cls-2" d="M202.6,34.522V32.995h8.546v1.527h-3.478V48.589h-1.589V34.522Z"/><path class="cls-2" d="M222.9,37.054V48.589h-1.462V46.607a6.381,6.381,0,0,1-2.094,1.706,5.854,5.854,0,0,1-6.721-1.2,5.957,5.957,0,0,1-1.732-4.321,5.828,5.828,0,0,1,1.749-4.261,5.688,5.688,0,0,1,4.206-1.77,5.447,5.447,0,0,1,2.573.6,5.875,5.875,0,0,1,2.019,1.812V37.054Zm-5.931,1.134a4.483,4.483,0,0,0-3.954,2.318,4.667,4.667,0,0,0,0,4.661A4.6,4.6,0,0,0,214.7,46.9a4.393,4.393,0,0,0,2.258.619,4.652,4.652,0,0,0,2.311-.612,4.288,4.288,0,0,0,1.677-1.664,4.731,4.731,0,0,0,.59-2.36,4.6,4.6,0,0,0-1.318-3.347A4.374,4.374,0,0,0,216.972,38.188Z"/><path class="cls-2" d="M225.678,37.054H227.2v1.688a5.276,5.276,0,0,1,1.433-1.491,2.805,2.805,0,0,1,1.566-.493,2.714,2.714,0,0,1,1.315.39l-.773,1.252a2.061,2.061,0,0,0-.785-.2,2.135,2.135,0,0,0-1.43.609,3.852,3.852,0,0,0-1.05,1.891,18.049,18.049,0,0,0-.277,3.986v3.9h-1.517Z"/><path class="cls-2" d="M232.954,37.054h1.514v1.688a5.308,5.308,0,0,1,1.434-1.491,2.818,2.818,0,0,1,1.566-.493,2.724,2.724,0,0,1,1.317.39L238.01,38.4a2.064,2.064,0,0,0-.785-.2,2.138,2.138,0,0,0-1.431.609,3.834,3.834,0,0,0-1.05,1.891,18.092,18.092,0,0,0-.277,3.986v3.9h-1.514Z"/><path class="cls-2" d="M250.794,37.054V48.589h-1.468V46.607a6.352,6.352,0,0,1-2.091,1.706,5.858,5.858,0,0,1-6.724-1.2,5.965,5.965,0,0,1-1.73-4.321,5.831,5.831,0,0,1,1.747-4.261,5.7,5.7,0,0,1,4.208-1.77,5.419,5.419,0,0,1,2.57.6,5.847,5.847,0,0,1,2.019,1.812V37.054Zm-5.93,1.134a4.486,4.486,0,0,0-3.957,2.318,4.67,4.67,0,0,0,.006,4.661,4.537,4.537,0,0,0,1.681,1.731,4.373,4.373,0,0,0,2.259.619,4.642,4.642,0,0,0,2.307-.612,4.322,4.322,0,0,0,1.679-1.664,4.728,4.728,0,0,0,.585-2.36,4.586,4.586,0,0,0-1.316-3.347A4.374,4.374,0,0,0,244.864,38.188Z"/><path class="cls-2" d="M253.14,37.054h1.486V39.12a6.166,6.166,0,0,1,1.975-1.774,4.833,4.833,0,0,1,2.351-.589,4.085,4.085,0,0,1,2.3.657,3.912,3.912,0,0,1,1.482,1.77,9.379,9.379,0,0,1,.476,3.468v5.937h-1.483v-5.5a13.3,13.3,0,0,0-.167-2.66,2.939,2.939,0,0,0-.989-1.725,3.009,3.009,0,0,0-1.91-.575,3.671,3.671,0,0,0-2.411.889,4.18,4.18,0,0,0-1.407,2.207,15.319,15.319,0,0,0-.213,3.136v4.232h-1.483Z"/><path class="cls-2" d="M266.687,32.772h1.482v4.282h2.357v1.284h-2.353V48.589h-1.482V38.338h-2.025V37.054h2.025Z"/><path class="cls-2" d="M295.755,35.89l-1.228.942a6.743,6.743,0,0,0-2.443-2.008,7.2,7.2,0,0,0-3.135-.686,6.945,6.945,0,0,0-3.455.9,6.462,6.462,0,0,0-2.468,2.4,6.658,6.658,0,0,0-.871,3.4,6.4,6.4,0,0,0,1.953,4.763,6.79,6.79,0,0,0,4.938,1.906,6.939,6.939,0,0,0,5.48-2.564l1.228.932a7.849,7.849,0,0,1-2.91,2.3,9.12,9.12,0,0,1-3.9.811,8.123,8.123,0,0,1-6.458-2.723,8.228,8.228,0,0,1-1.978-5.556,7.731,7.731,0,0,1,2.4-5.763,8.289,8.289,0,0,1,6.019-2.336,8.8,8.8,0,0,1,3.94.865A7.646,7.646,0,0,1,295.755,35.89Z"/><path class="cls-2" d="M303.353,36.758a5.71,5.71,0,0,1,4.421,1.931,6.187,6.187,0,0,1-.092,8.389,6.1,6.1,0,0,1-8.627.037l-.037-.037a6.175,6.175,0,0,1-.092-8.378A5.72,5.72,0,0,1,303.353,36.758Zm0,1.454a4.292,4.292,0,0,0-3.184,1.366,4.582,4.582,0,0,0-1.326,3.306,4.658,4.658,0,0,0,.605,2.332,4.258,4.258,0,0,0,1.638,1.668,4.651,4.651,0,0,0,4.531,0,4.251,4.251,0,0,0,1.635-1.668,4.664,4.664,0,0,0,.612-2.332,4.569,4.569,0,0,0-1.338-3.306,4.279,4.279,0,0,0-3.176-1.366Z"/><path class="cls-2" d="M311.177,37.054h1.482v5.384a11.449,11.449,0,0,0,.214,2.714,3.056,3.056,0,0,0,1.214,1.677,3.7,3.7,0,0,0,2.14.614,3.583,3.583,0,0,0,2.108-.6,3.03,3.03,0,0,0,1.192-1.574,10.777,10.777,0,0,0,.224-2.831V37.054h1.52v5.663a8.938,8.938,0,0,1-.559,3.593,4.229,4.229,0,0,1-1.673,1.891,5.282,5.282,0,0,1-2.806.683,5.345,5.345,0,0,1-2.815-.683,4.19,4.19,0,0,1-1.682-1.9,9.273,9.273,0,0,1-.559-3.684Z"/><path class="cls-2" d="M323.45,37.054h1.483V39.12a6.2,6.2,0,0,1,1.973-1.774,4.852,4.852,0,0,1,2.353-.589,4.083,4.083,0,0,1,2.3.657,3.9,3.9,0,0,1,1.477,1.77,9.323,9.323,0,0,1,.479,3.468v5.937h-1.489v-5.5a13.589,13.589,0,0,0-.165-2.66,2.919,2.919,0,0,0-.987-1.725,3.008,3.008,0,0,0-1.909-.575,3.683,3.683,0,0,0-2.414.889,4.182,4.182,0,0,0-1.4,2.207,15.34,15.34,0,0,0-.213,3.136v4.232h-1.483Z"/><path class="cls-2" d="M336.994,32.772h1.482v4.282h2.357v1.284h-2.357V48.589h-1.482V38.338h-2.022V37.054h2.022Z"/><path class="cls-2" d="M342.559,37.054h1.572l3.963,8.88,3.844-8.88h1.588l-6.882,15.752h-1.566l2.224-5.092Z"/><path class="cls-2" d="M379.065,35.89l-1.228.942a6.748,6.748,0,0,0-2.446-2.008,7.175,7.175,0,0,0-3.132-.686,6.948,6.948,0,0,0-3.455.9,6.451,6.451,0,0,0-2.464,2.407,6.64,6.64,0,0,0-.876,3.4,6.386,6.386,0,0,0,1.955,4.763,6.784,6.784,0,0,0,4.935,1.906,6.94,6.94,0,0,0,5.483-2.564l1.228.932a7.855,7.855,0,0,1-2.91,2.3,9.123,9.123,0,0,1-3.9.811A8.1,8.1,0,0,1,365.8,46.27a8.227,8.227,0,0,1-1.974-5.57,7.731,7.731,0,0,1,2.4-5.763,8.287,8.287,0,0,1,6.01-2.337,8.829,8.829,0,0,1,3.948.865A7.639,7.639,0,0,1,379.065,35.89Z"/><path class="cls-2" d="M386.664,36.758a5.7,5.7,0,0,1,4.418,1.931,6.187,6.187,0,0,1-.089,8.389,6.1,6.1,0,0,1-8.627.04l-.04-.04a6.185,6.185,0,0,1-.089-8.382A5.723,5.723,0,0,1,386.664,36.758Zm-.006,1.454a4.265,4.265,0,0,0-3.178,1.366,4.559,4.559,0,0,0-1.33,3.306,4.7,4.7,0,0,0,.606,2.332,4.324,4.324,0,0,0,1.639,1.668,4.65,4.65,0,0,0,4.531,0,4.287,4.287,0,0,0,1.642-1.668,4.7,4.7,0,0,0,.606-2.332,4.555,4.555,0,0,0-1.336-3.306A4.29,4.29,0,0,0,386.658,38.212Z"/><path class="cls-2" d="M394.456,32.6h1.485V48.589h-1.485Z"/><path class="cls-2" d="M398.8,32.6h1.479V48.589H398.8Z"/><path class="cls-2" d="M412.338,44.763l1.252.657a6.879,6.879,0,0,1-1.425,1.949,5.644,5.644,0,0,1-1.814,1.131,6.4,6.4,0,0,1-2.279.384,5.5,5.5,0,0,1-4.413-1.847,6.247,6.247,0,0,1-1.592-4.183,6.162,6.162,0,0,1,1.344-3.911,5.517,5.517,0,0,1,4.577-2.184A5.68,5.68,0,0,1,412.7,39a6.24,6.24,0,0,1,1.278,3.941H403.594a4.707,4.707,0,0,0,1.283,3.3,4.1,4.1,0,0,0,3.069,1.284,4.882,4.882,0,0,0,1.714-.307,4.5,4.5,0,0,0,1.416-.812A6.778,6.778,0,0,0,412.338,44.763Zm0-3.109a4.881,4.881,0,0,0-.865-1.9,4.113,4.113,0,0,0-1.5-1.146,4.6,4.6,0,0,0-1.964-.433,4.225,4.225,0,0,0-2.916,1.092,4.914,4.914,0,0,0-1.35,2.383Z"/><path class="cls-2" d="M426.31,37.053H427.8v9.188a10.82,10.82,0,0,1-.427,3.553,4.6,4.6,0,0,1-2.028,2.45,6.65,6.65,0,0,1-3.463.859,7.9,7.9,0,0,1-2.665-.42,5.333,5.333,0,0,1-1.924-1.127,6.744,6.744,0,0,1-1.367-2.068h1.612a4.247,4.247,0,0,0,1.7,1.694,5.475,5.475,0,0,0,2.581.554,5.321,5.321,0,0,0,2.564-.565,3.524,3.524,0,0,0,1.491-1.422,6.34,6.34,0,0,0,.444-2.764v-.592a5.645,5.645,0,0,1-2.047,1.627,6.076,6.076,0,0,1-5.561-.223,5.578,5.578,0,0,1-2.163-2.125,5.8,5.8,0,0,1-.765-2.937,6,6,0,0,1,5.962-5.979,5.468,5.468,0,0,1,2.414.536,6.622,6.622,0,0,1,2.16,1.765Zm-4.384,1.134a4.718,4.718,0,0,0-2.342.61,4.406,4.406,0,0,0-1.693,1.686,4.615,4.615,0,0,0-.614,2.327,4.207,4.207,0,0,0,1.272,3.138,4.517,4.517,0,0,0,3.3,1.241,4.471,4.471,0,0,0,3.288-1.231,4.328,4.328,0,0,0,1.249-3.233,4.7,4.7,0,0,0-.571-2.326,4.187,4.187,0,0,0-1.624-1.616A4.524,4.524,0,0,0,421.926,38.187Z"/><path class="cls-2" d="M439.942,44.761l1.252.657a6.838,6.838,0,0,1-1.426,1.949,5.612,5.612,0,0,1-1.814,1.131,6.37,6.37,0,0,1-2.281.384,5.5,5.5,0,0,1-4.41-1.847,6.232,6.232,0,0,1-1.595-4.183,6.165,6.165,0,0,1,1.347-3.911,5.514,5.514,0,0,1,4.573-2.184,5.68,5.68,0,0,1,4.711,2.237,6.2,6.2,0,0,1,1.272,3.941H431.194a4.69,4.69,0,0,0,1.29,3.3,4.078,4.078,0,0,0,3.063,1.284,4.864,4.864,0,0,0,1.714-.307,4.55,4.55,0,0,0,1.422-.812A7.207,7.207,0,0,0,439.942,44.761Zm0-3.109a4.871,4.871,0,0,0-.868-1.9,4.09,4.09,0,0,0-1.5-1.146,4.616,4.616,0,0,0-1.965-.433,4.224,4.224,0,0,0-2.916,1.092,4.93,4.93,0,0,0-1.349,2.383Z"/><path class="cls-2" d="M208.476,60.547a5.221,5.221,0,0,0-2.052-.433,1.4,1.4,0,0,0-1.589,1.4c0,1.748,4.422,1.011,4.422,4.392,0,2.211-1.748,3.048-3.786,3.048a8.845,8.845,0,0,1-2.586-.391l.187-1.82a4.86,4.86,0,0,0,2.283.62c.766,0,1.792-.387,1.792-1.3,0-1.92-4.421-1.128-4.421-4.464,0-2.253,1.748-3.077,3.524-3.077a7.583,7.583,0,0,1,2.414.362Z"/><path class="cls-2" d="M210.694,58.7h2.023v5.82c0,1.721.55,2.845,2.094,2.845s2.1-1.124,2.1-2.845V58.7h2.015v6.444c0,2.7-1.531,3.814-4.118,3.814s-4.117-1.113-4.117-3.814Z"/><path class="cls-2" d="M228.426,68.637a10.158,10.158,0,0,1-2.3.319c-3.265,0-5.533-1.632-5.533-5.043,0-3.453,2.11-5.388,5.533-5.388a6.687,6.687,0,0,1,2.284.419l-.146,1.706a4.155,4.155,0,0,0-2.181-.535,3.369,3.369,0,0,0-3.393,3.345q0,.155.012.31a3.32,3.32,0,0,0,3.423,3.6,5.6,5.6,0,0,0,2.21-.418Z"/><path class="cls-2" d="M237.252,68.637a10.159,10.159,0,0,1-2.3.319c-3.265,0-5.533-1.632-5.533-5.043,0-3.453,2.11-5.388,5.533-5.388a6.687,6.687,0,0,1,2.284.419l-.144,1.706a4.163,4.163,0,0,0-2.182-.535,3.369,3.369,0,0,0-3.393,3.345q0,.155.012.31a3.321,3.321,0,0,0,3.423,3.6,5.61,5.61,0,0,0,2.211-.418Z"/><path class="cls-2" d="M238.739,58.7h5.952v1.589h-3.929v2.485h3.6v1.59h-3.6V67.2h3.958v1.589h-5.981Z"/><path class="cls-2" d="M252.188,60.547a5.23,5.23,0,0,0-2.052-.433,1.4,1.4,0,0,0-1.589,1.4c0,1.748,4.421,1.011,4.421,4.392,0,2.211-1.747,3.048-3.785,3.048a8.844,8.844,0,0,1-2.586-.391l.187-1.82a4.86,4.86,0,0,0,2.283.62c.765,0,1.791-.387,1.791-1.3,0-1.92-4.421-1.128-4.421-4.464,0-2.253,1.749-3.077,3.525-3.077a7.586,7.586,0,0,1,2.414.362Z"/><path class="cls-2" d="M259.788,60.547a5.232,5.232,0,0,0-2.052-.433,1.4,1.4,0,0,0-1.59,1.4c0,1.748,4.421,1.011,4.421,4.392,0,2.211-1.748,3.048-3.785,3.048a8.854,8.854,0,0,1-2.587-.391l.189-1.82a4.854,4.854,0,0,0,2.282.62c.766,0,1.792-.387,1.792-1.3,0-1.92-4.421-1.128-4.421-4.464,0-2.253,1.748-3.077,3.526-3.077a7.576,7.576,0,0,1,2.412.362Z"/><path class="cls-2" d="M266.253,58.7h2.124l1.878,8.062h.029L272,58.7h2.744l1.779,8.06h.029l1.893-8.062h1.965l-2.63,10.085h-2.6l-1.82-8.062h-.029l-1.792,8.062h-2.616Z"/><path class="cls-2" d="M281.82,58.7h2.023V68.782H281.82Z"/><path class="cls-2" d="M288.005,60.286h-2.889V58.7h7.8v1.589h-2.89v8.5H288Z"/><path class="cls-2" d="M294.2,58.7h2.024v4.074h4.045V58.7h2.023V68.782h-2.023V64.361h-4.045v4.421H294.2Z"/><path class="cls-2" d="M304.026,58.7h2.023V68.782h-2.023Z"/><path class="cls-2" d="M307.845,58.7h2.481l3.843,7.543h.03V58.7h1.935V68.782h-2.47l-3.858-7.543h-.028v7.543h-1.937Z"/><path class="cls-2" d="M322.486,58.7h2.181c2.168,0,4.755-.072,4.755,2.731a2.307,2.307,0,0,1-2.081,2.34v.03c.548.041.867.591,1.069,1.039l1.616,3.942h-2.253l-1.214-3.149c-.29-.751-.551-1.042-1.4-1.042h-.65v4.191h-2.023Zm2.023,4.3h.665c1,0,2.138-.145,2.138-1.4,0-1.214-1.128-1.315-2.138-1.315h-.665Z"/><path class="cls-2" d="M331.485,58.7h5.953v1.589h-3.931v2.485h3.6v1.59h-3.6V67.2h3.958v1.589h-5.981Z"/><path class="cls-2" d="M342.837,58.7h2.282l3.96,10.085H346.84l-.868-2.312h-4.088L341,68.785h-2.1Zm1.113,2.023h-.029l-1.459,4.162h2.947Z"/><path class="cls-2" d="M357.231,68.637a10.151,10.151,0,0,1-2.3.319c-3.266,0-5.534-1.632-5.534-5.043,0-3.453,2.109-5.388,5.534-5.388a6.672,6.672,0,0,1,2.282.419l-.144,1.706a4.158,4.158,0,0,0-2.181-.535,3.37,3.37,0,0,0-3.393,3.347q0,.154.012.308a3.321,3.321,0,0,0,3.425,3.6,5.6,5.6,0,0,0,2.21-.418Z"/><path class="cls-2" d="M358.771,58.7h2.023v4.074h4.045V58.7h2.023V68.782h-2.023V64.361h-4.045v4.421h-2.023Z"/><path class="cls-2" d="M368.6,66.76h2.023v2.023H368.6Z"/></svg>