<?xml version="1.0" encoding="utf-8"?>
<!-- Generator: Adobe Illustrator 19.2.1, SVG Export Plug-In . SVG Version: 6.00 Build 0)  -->
<svg version="1.1" id="Layer_1" xmlns="http://www.w3.org/2000/svg" xmlns:xlink="http://www.w3.org/1999/xlink" x="0px" y="0px"
	 viewBox="0 0 546.7 181.2" style="enable-background:new 0 0 546.7 181.2;" xml:space="preserve">
<style type="text/css">
	.st0{fill:#FFFFFF;}
	.st1{fill:#8DC63F;}
</style>
<g>
	
		<image style="overflow:visible;opacity:0.75;" width="546" height="50" xlink:href="D2B2C132.png"  transform="matrix(1 0 0 1 0 30.2)">
	</image>
	<g>
		<g>
			<path class="st0" d="M10.9,61.5L2.6,33.6h6.9l5,19l5-19h6.3l-8.3,27.9v13.8h-6.6V61.5z"/>
			<path class="st0" d="M26.9,43.6c0-6.7,3.5-10.5,9.9-10.5s9.9,3.8,9.9,10.5v21.7c0,6.7-3.5,10.5-9.9,10.5s-9.9-3.8-9.9-10.5V43.6z
				 M33.4,65.7c0,3,1.3,4.1,3.4,4.1s3.4-1.1,3.4-4.1V43.2c0-3-1.3-4.1-3.4-4.1s-3.4,1.1-3.4,4.1V65.7z"/>
			<path class="st0" d="M57.3,33.6v32.2c0,3,1.3,4.1,3.4,4.1s3.4-1.1,3.4-4.1V33.6h6.2v31.8c0,6.7-3.3,10.5-9.8,10.5
				s-9.8-3.8-9.8-10.5V33.6H57.3z"/>
			<path class="st0" d="M74.7,39.9v-6.3H81v5.7l-2.9,6.6h-2.7l1.7-6H74.7z"/>
			<path class="st0" d="M95.7,67.6l5-34h6l-6.4,41.7h-9.8l-6.4-41.7h6.6L95.7,67.6z"/>
			<path class="st0" d="M116.3,51.2h9v6h-9v12.2h11.3v6h-17.9V33.6h17.9v6h-11.3V51.2z"/>
			<path class="st0" d="M139,33.6h20.3v6h-6.9v35.7h-6.6V39.6H139V33.6z"/>
			<path class="st0" d="M181.1,75.3h-6.6l-1.1-7.6h-8l-1.1,7.6h-6l6.7-41.7h9.6L181.1,75.3z M166.1,62.1h6.3L169.3,41L166.1,62.1z"
				/>
			<path class="st0" d="M192.7,58.7l-2,3.8v12.8h-6.6V33.6h6.6v18.2l8.6-18.2h6.6l-9.1,18.6l9.1,23.1h-6.7L192.7,58.7z"/>
			<path class="st0" d="M215.3,51.2h9v6h-9v12.2h11.3v6h-17.9V33.6h17.9v6h-11.3V51.2z"/>
			<path class="st0" d="M236.5,45.1v30.2h-5.9V33.6h8.2l6.7,25v-25h5.8v41.7h-6.7L236.5,45.1z"/>
			<path class="st0" d="M263.5,33.6h20.3v6h-6.8v35.7h-6.6V39.6h-6.9V33.6z"/>
			<path class="st0" d="M293.1,75.3h-6.6V33.6h6.6v17.9h7.4V33.6h6.7v41.7h-6.7V57.4h-7.4V75.3z"/>
			<path class="st0" d="M318.6,51.2h9v6h-9v12.2h11.3v6H312V33.6h17.9v6h-11.3V51.2z"/>
			<path class="st0" d="M349.7,52.1h8.5v6h-8.5v17.2h-6.6V33.6h17.3v6h-10.8V52.1z"/>
			<path class="st0" d="M363.7,33.6h6.6v41.7h-6.6V33.6z"/>
			<path class="st0" d="M388.7,75.3c-0.4-1.1-0.6-1.7-0.6-5.1v-6.6c0-3.9-1.3-5.3-4.3-5.3h-2.3v17H375V33.6h9.9
				c6.8,0,9.7,3.2,9.7,9.6v3.3c0,4.3-1.4,7.1-4.3,8.5c3.3,1.4,4.3,4.5,4.3,8.9v6.4c0,2,0.1,3.5,0.7,5.1H388.7z M381.5,39.6v12.8h2.6
				c2.4,0,3.9-1.1,3.9-4.4v-4.1c0-3-1-4.3-3.3-4.3H381.5z"/>
			<path class="st0" d="M407.7,33.1c6.4,0,9.7,3.8,9.7,10.5v1.3h-6.2v-1.7c0-3-1.2-4.1-3.3-4.1s-3.3,1.1-3.3,4.1
				c0,8.6,12.8,10.2,12.8,22.1c0,6.7-3.3,10.5-9.8,10.5s-9.8-3.8-9.8-10.5v-2.6h6.2v3c0,3,1.3,4.1,3.4,4.1s3.4-1.1,3.4-4.1
				c0-8.6-12.8-10.2-12.8-22.1C398.1,36.9,401.4,33.1,407.7,33.1z"/>
			<path class="st0" d="M419.3,33.6h20.3v6h-6.9v35.7h-6.6V39.6h-6.9V33.6z"/>
			<path class="st0" d="M460.5,33.1c6.4,0,9.7,3.8,9.7,10.5v1.3h-6.2v-1.7c0-3-1.2-4.1-3.3-4.1s-3.3,1.1-3.3,4.1
				c0,8.6,12.8,10.2,12.8,22.1c0,6.7-3.3,10.5-9.8,10.5s-9.8-3.8-9.8-10.5v-2.6h6.2v3c0,3,1.3,4.1,3.4,4.1s3.4-1.1,3.4-4.1
				c0-8.6-12.8-10.2-12.8-22.1C450.8,36.9,454.1,33.1,460.5,33.1z"/>
			<path class="st0" d="M472,33.6h20.3v6h-6.9v35.7h-6.6V39.6H472V33.6z"/>
			<path class="st0" d="M501.7,51.2h9v6h-9v12.2H513v6h-17.9V33.6H513v6h-11.3V51.2z"/>
			<path class="st0" d="M536.5,43.9v5.4c0,6.7-3.2,10.3-9.8,10.3h-3.1v15.7H517V33.6h9.7C533.3,33.6,536.5,37.2,536.5,43.9z
				 M523.6,39.6v14.1h3.1c2.1,0,3.2-1,3.2-3.9v-6.3c0-3-1.1-3.9-3.2-3.9H523.6z"/>
			<path class="st0" d="M541.1,69v6.3h-6.3V69H541.1z"/>
		</g>
	</g>
</g>
<g>
	
		<image style="overflow:visible;opacity:0.75;" width="520" height="76" xlink:href="D2B2C135.png"  transform="matrix(1 0 0 1 14 71.2)">
	</image>
	<g>
		<g>
			<path class="st1" d="M54.6,118.5c0.3-1.3,0.9-3.3,1.7-5.9c0.8-2.7,1.7-5.7,2.8-9c1.1-3.3,2.4-6.7,3.8-10.2c1.4-3.5,3-6.7,4.6-9.6
				c1.6-2.9,3.4-5.3,5.2-7.1c1.8-1.9,3.7-2.8,5.7-2.8c0.7,0,1.4,0.2,2.1,0.7c0.7,0.5,1.3,1,1.8,1.6c0.6,0.7,1.1,1.5,1.7,2.4
				c-0.1,0-0.3-0.1-0.5-0.1c-0.1,0-0.3-0.1-0.5-0.1c-0.2,0-0.4-0.1-0.6-0.1c-2.5,0-4.8,0.9-7.1,2.6s-4.3,4-6.2,6.7
				c-1.9,2.7-3.6,5.7-5.2,9c-1.5,3.3-2.9,6.5-4.1,9.6c-1.2,3.1-2.2,5.9-3,8.4s-1.4,4.3-1.7,5.4c0.3,0.6,0.6,1,0.9,1.1
				c-1.1,0.1-2.1,0.2-3,0c-0.9-0.1-1.8-0.5-2.5-1c-0.7-0.6-1.3-1.4-1.8-2.4c-0.4-1.1-0.7-2.4-0.7-4c0-1.5-0.1-3.4-0.1-5.8
				c0-2.3-0.1-4.7-0.1-7c0-2.3-0.1-4.4-0.1-6.2s0-3,0-3.5V90c-0.4,1.2-1.1,3.1-2,5.7c-0.9,2.6-2.1,5.5-3.5,8.7
				c-1.4,3.2-2.9,6.5-4.6,10c-1.7,3.4-3.5,6.5-5.3,9.4c-1.9,2.8-3.8,5.2-5.7,7c-2,1.8-3.9,2.7-5.8,2.7c-0.7,0-1.3-0.3-1.8-0.8
				c-0.5-0.5-0.9-1.2-1.2-1.8c-0.3-0.8-0.6-1.7-0.9-2.7c0.2,0.1,0.4,0.2,0.6,0.2c0.4,0.1,0.7,0.1,1,0.1c2.4,0,4.7-0.8,7-2.5
				c2.3-1.7,4.4-3.8,6.4-6.4c2-2.6,3.8-5.5,5.5-8.7s3.2-6.2,4.6-9.3c1.3-3,2.5-5.8,3.5-8.3c1-2.5,1.7-4.4,2.2-5.6
				c-0.2-0.6-0.3-1-0.3-1.2c0.6,0,1.2,0,1.9,0.1c0.7,0,1.4,0.2,2,0.6c0.6,0.3,1.2,0.8,1.6,1.5s0.7,1.6,0.7,2.8c0,0.6,0,1.6,0.1,2.8
				c0,1.2,0.1,2.6,0.1,4.1c0,1.5,0.1,3,0.1,4.7c0,1.6,0.1,3.2,0.1,4.6c0,1.5,0,2.8,0.1,3.9c0,1.1,0,2,0,2.5
				C54,115.8,54.2,117.2,54.6,118.5z"/>
			<path class="st1" d="M71.5,98.2c0.2,0,0.6,0.1,1,0.4c0.4,0.3,0.8,0.6,1.2,1c0.5-1,1.3-1.9,2.2-2.6c1-0.7,1.9-1.1,3-1.1
				c1.5-0.1,2.6,0.2,3.4,0.8c0.8,0.6,1.2,1.7,1.2,3.3c0,1.9-0.3,3.8-0.9,5.6c0.7-0.2,1.5-0.5,2.3-0.8c0.8-0.3,1.5-0.7,2.2-1.1
				c0.7-0.4,1.3-0.8,1.8-1.2c0.5-0.4,0.9-0.8,1.1-1.1v1.2c-0.8,0.7-1.9,1.5-3.4,2.2c-1.5,0.7-3,1.3-4.4,1.7
				c-0.5,1.7-1.2,3.4-2.1,4.9s-1.8,3-2.9,4.2c-1,1.2-2.1,2.2-3.2,2.9c-1.1,0.7-2.2,1.1-3.3,1.1c-0.5,0-1.2-0.2-1.8-0.5
				c-0.7-0.3-1.3-0.8-2-1.4c-0.6-0.6-1.2-1.4-1.6-2.3s-0.7-1.9-0.7-3.1c0-1.6,0.3-3.3,0.8-5c0.6-1.7,1.2-3.2,2-4.6
				c0.8-1.4,1.6-2.5,2.3-3.3C70.5,98.7,71.1,98.2,71.5,98.2z M81.2,106.8c-0.7,0.2-1.5,0.3-2.3,0.3c-0.8,0-1.6-0.1-2.4-0.3
				c-0.8-0.2-1.5-0.6-2.1-1c-0.6-0.5-1-1.1-1.2-1.9c-0.8,1.1-1.5,2.2-2,3.2c-0.5,1.1-0.9,2.1-1.2,3.1s-0.5,1.9-0.6,2.7
				c-0.1,0.8-0.1,1.5-0.1,1.9c0,1.1,0.2,2,0.5,2.6c0.3,0.7,0.9,1,1.7,1c0.8,0,1.6-0.3,2.5-1c0.9-0.6,1.8-1.5,2.7-2.6
				c0.9-1.1,1.7-2.4,2.5-3.7C80,109.8,80.7,108.3,81.2,106.8z M81.5,105.9c0.3-1,0.6-2.1,0.8-3.1c0.2-1,0.3-2,0.3-3
				c0-0.7-0.2-1.4-0.6-2c-0.4-0.6-1-0.9-1.8-0.9c-0.7,0-1.3,0.2-1.8,0.7s-0.8,1.1-1.1,1.8c-0.2,0.7-0.3,1.5-0.3,2.3
				c0,0.8,0.2,1.5,0.6,2.2c0.3,0.7,0.8,1.2,1.4,1.6C79.7,105.9,80.5,106,81.5,105.9z"/>
			<path class="st1" d="M118.3,97.3c0,0.8-0.3,2-0.9,3.4c-0.6,1.4-1.4,3-2.3,4.7c-1,1.7-2,3.4-3.2,5.1c-1.2,1.7-2.4,3.3-3.7,4.7
				c-1.2,1.4-2.4,2.5-3.6,3.4c-1.2,0.9-2.1,1.3-3,1.3c-0.6,0-1.1-0.1-1.6-0.3c-0.5-0.2-0.9-0.5-1.3-0.8s-0.6-0.6-0.8-0.8
				c-0.2-0.3-0.3-0.5-0.3-0.6c0-0.4,0.1-1,0.3-1.9c0.2-0.9,0.4-2,0.6-3.2c0.2-1.2,0.5-2.6,0.8-4c0.3-1.4,0.6-2.9,0.9-4.4
				c-0.6,1.6-1.4,3.4-2.2,5.3c-0.8,1.9-1.7,3.6-2.5,5.2c-0.9,1.6-1.8,2.9-2.6,4c-0.9,1.1-1.7,1.6-2.6,1.6c-0.5,0-1-0.1-1.4-0.3
				c-0.5-0.2-0.9-0.5-1.2-0.8s-0.7-0.7-0.9-1s-0.4-0.7-0.4-0.9c0-0.8,0.2-2.1,0.6-4c0.4-1.9,0.8-3.9,1.3-6.1
				c0.5-2.2,0.9-4.3,1.4-6.4c0.4-2.1,0.6-3.8,0.6-5c0.2,0.1,0.6,0.3,1.2,0.6c0.5,0.3,1.1,0.6,1.7,0.9c0.6,0.3,1.1,0.6,1.5,0.9
				c0.4,0.3,0.6,0.5,0.6,0.6c0,0.4-0.1,1.1-0.3,2.1c-0.2,1-0.5,2.2-0.8,3.5c-0.3,1.3-0.6,2.7-1,4.1c-0.3,1.5-0.7,2.8-1,4.1
				c-0.3,1.3-0.6,2.4-0.8,3.4c-0.2,1-0.3,1.6-0.3,1.9c0,0.7,0.2,1,0.7,1c0.4,0,0.9-0.5,1.5-1.5c0.6-1,1.3-2.3,2.1-3.9
				s1.6-3.5,2.5-5.7c0.9-2.2,1.8-4.4,2.8-6.8c0.2-1,0.3-1.8,0.4-2.5c0.1-0.7,0.2-1.4,0.3-2.2c0.2,0.1,0.6,0.3,1.1,0.5
				c0.6,0.2,1.1,0.4,1.7,0.7c0.6,0.2,1.1,0.4,1.5,0.7s0.7,0.4,0.7,0.6c0,0.2-0.1,0.9-0.3,1.8c-0.2,1-0.5,2.2-0.8,3.5
				c-0.3,1.4-0.6,2.8-1,4.3c-0.3,1.5-0.7,3-1,4.3c-0.3,1.3-0.6,2.5-0.8,3.4c-0.2,0.9-0.3,1.5-0.3,1.7c0,0.7,0.2,1,0.7,1
				c0.6,0,1.5-0.7,2.6-2.1s2.3-3.3,3.5-5.6c1.1-2.3,2.2-4.9,3-7.8c0.9-2.9,1.4-5.9,1.5-8.8c0.2,0.1,0.6,0.3,1.1,0.6
				c0.5,0.3,1,0.6,1.5,0.9c0.5,0.3,1,0.6,1.4,1C118.1,96.8,118.3,97.1,118.3,97.3z"/>
			<path class="st1" d="M124,114.2c0,0.2-0.3,0.8-0.8,1.8c-0.5,1-1.1,2.1-1.7,3.3s-1.2,2.3-1.7,3.4c-0.5,1.1-0.8,1.9-0.8,2.3
				c-1.1-0.1-1.9-0.5-2.5-1.1c-0.6-0.6-0.9-1.1-0.9-1.7c0-0.2,0.2-0.9,0.6-1.9c0.4-1,0.8-2.1,1.3-3.3c0.5-1.2,0.9-2.3,1.2-3.4
				c0.4-1.1,0.5-1.8,0.5-2.2c0.5,0,1,0.2,1.6,0.4c0.6,0.2,1.1,0.5,1.5,0.8c0.5,0.3,0.9,0.6,1.2,0.9C123.8,113.8,124,114,124,114.2z"
				/>
			<path class="st1" d="M169.9,97.3c0,0.8-0.3,2-0.9,3.4c-0.6,1.4-1.4,3-2.3,4.7c-1,1.7-2,3.4-3.2,5.1c-1.2,1.7-2.4,3.3-3.7,4.7
				c-1.2,1.4-2.4,2.5-3.6,3.4c-1.2,0.9-2.1,1.3-3,1.3c-0.6,0-1.1-0.1-1.6-0.3c-0.5-0.2-0.9-0.5-1.3-0.8s-0.6-0.6-0.8-0.8
				c-0.2-0.3-0.3-0.5-0.3-0.6c0-0.4,0.1-1,0.3-1.9c0.2-0.9,0.4-2,0.6-3.2c0.2-1.2,0.5-2.6,0.8-4c0.3-1.4,0.6-2.9,0.9-4.4
				c-0.6,1.6-1.4,3.4-2.2,5.3c-0.8,1.9-1.7,3.6-2.5,5.2c-0.9,1.6-1.8,2.9-2.6,4c-0.9,1.1-1.7,1.6-2.6,1.6c-0.5,0-1-0.1-1.4-0.3
				c-0.5-0.2-0.9-0.5-1.2-0.8s-0.7-0.7-0.9-1s-0.4-0.7-0.4-0.9c0-0.8,0.2-2.1,0.6-4c0.4-1.9,0.8-3.9,1.3-6.1
				c0.5-2.2,0.9-4.3,1.4-6.4c0.4-2.1,0.6-3.8,0.6-5c0.2,0.1,0.6,0.3,1.2,0.6c0.5,0.3,1.1,0.6,1.7,0.9c0.6,0.3,1.1,0.6,1.5,0.9
				c0.4,0.3,0.6,0.5,0.6,0.6c0,0.4-0.1,1.1-0.3,2.1c-0.2,1-0.5,2.2-0.8,3.5c-0.3,1.3-0.6,2.7-1,4.1c-0.3,1.5-0.7,2.8-1,4.1
				c-0.3,1.3-0.6,2.4-0.8,3.4c-0.2,1-0.3,1.6-0.3,1.9c0,0.7,0.2,1,0.7,1c0.4,0,0.9-0.5,1.5-1.5c0.6-1,1.3-2.3,2.1-3.9
				s1.6-3.5,2.5-5.7c0.9-2.2,1.8-4.4,2.8-6.8c0.2-1,0.3-1.8,0.4-2.5c0.1-0.7,0.2-1.4,0.3-2.2c0.2,0.1,0.6,0.3,1.1,0.5
				c0.6,0.2,1.1,0.4,1.7,0.7c0.6,0.2,1.1,0.4,1.5,0.7s0.7,0.4,0.7,0.6c0,0.2-0.1,0.9-0.3,1.8c-0.2,1-0.5,2.2-0.8,3.5
				c-0.3,1.4-0.6,2.8-1,4.3c-0.3,1.5-0.7,3-1,4.3c-0.3,1.3-0.6,2.5-0.8,3.4c-0.2,0.9-0.3,1.5-0.3,1.7c0,0.7,0.2,1,0.7,1
				c0.6,0,1.5-0.7,2.6-2.1s2.3-3.3,3.5-5.6c1.1-2.3,2.2-4.9,3-7.8c0.9-2.9,1.4-5.9,1.5-8.8c0.2,0.1,0.6,0.3,1.1,0.6
				c0.5,0.3,1,0.6,1.5,0.9c0.5,0.3,1,0.6,1.4,1C169.7,96.8,169.9,97.1,169.9,97.3z"/>
			<path class="st1" d="M172.6,113.2c0.3-0.7,0.8-1.6,1.4-2.7c0.6-1.1,1.3-2.2,2.1-3.4c0.8-1.2,1.6-2.3,2.4-3.5
				c0.8-1.1,1.7-2.2,2.5-3.1c0.8-0.9,1.6-1.7,2.4-2.3c0.8-0.6,1.5-0.9,2.1-0.9c0.4,0,0.9,0.1,1.3,0.4c0.4,0.3,0.8,0.6,1.2,1
				s0.7,0.8,0.9,1.2c0.2,0.4,0.3,0.8,0.3,1.2c0,0.5-0.1,1.2-0.4,2.2c-0.3,1-0.6,2.1-1,3.3c-0.4,1.2-0.9,2.4-1.3,3.7
				c-0.5,1.2-0.9,2.4-1.2,3.4c-0.3,1-0.6,1.9-0.8,2.5c-0.2,0.7-0.2,1,0,1c0.2,0,0.6-0.4,1.2-1.2c0.6-0.8,1.3-1.8,2.2-3.1
				c0.9-1.3,1.8-2.8,2.8-4.5c1-1.7,2.1-3.5,3.2-5.3v1.3c-3,5.4-5.4,9.3-7.1,11.7c-1.7,2.4-3,3.7-4.1,3.8c-0.9,0.1-1.7-0.2-2.3-1
				c-0.7-0.8-1.1-1.5-1.2-2.3c-0.1-0.6,0-1.5,0.3-2.7c0.3-1.1,0.7-2.4,1.2-3.7c0.5-1.3,1.1-2.7,1.6-4.1c0.6-1.4,1.1-2.7,1.5-3.8
				c0.4-1.1,0.7-2,0.9-2.8c0.2-0.7,0.1-1.1-0.1-1.1c-0.4,0-1.1,0.6-2.2,1.7c-1.1,1.1-2.3,2.7-3.7,4.6c-1.4,1.9-2.8,4.2-4.3,6.8
				c-1.4,2.6-2.7,5.4-3.9,8.3c-0.2-0.1-0.6-0.3-1-0.6c-0.4-0.3-0.9-0.6-1.3-1c-0.4-0.4-0.8-0.7-1.2-1.1c-0.3-0.4-0.5-0.7-0.5-0.9
				c0-0.1,0.2-1,0.7-2.6c0.5-1.6,1-3.5,1.7-5.9c0.7-2.4,1.4-4.9,2.3-7.6c0.8-2.7,1.6-5.3,2.3-7.8c0.7-2.5,1.3-4.7,1.7-6.5
				c0.5-1.9,0.7-3.1,0.7-3.7c0-0.2,0-0.5,0-0.6c0-0.2,0-0.5-0.1-0.8c0.4,0.1,0.9,0.4,1.4,0.8c0.6,0.4,1.1,0.9,1.6,1.4
				c0.5,0.5,0.9,1,1.3,1.4c0.3,0.4,0.5,0.7,0.5,0.9c0,0.7-0.3,2.1-0.9,4.3c-0.6,2.2-1.3,4.6-2.2,7.4c-0.8,2.8-1.7,5.6-2.7,8.6
				C174,108.5,173.2,111,172.6,113.2z"/>
			<path class="st1" d="M201.8,96.3c0.4,0,1,0.1,1.6,0.2c0.6,0.1,1.3,0.3,1.9,0.4c0.6,0.2,1.2,0.4,1.7,0.6c0.5,0.2,0.9,0.4,1.1,0.5
				l0.6-1.3c0.2,0.1,0.6,0.2,1.2,0.4c0.5,0.1,1.1,0.3,1.6,0.5c0.5,0.2,1,0.4,1.4,0.6c0.4,0.2,0.6,0.3,0.6,0.4s-0.2,0.6-0.5,1.6
				s-0.8,2.2-1.2,3.6c-0.5,1.4-1,2.9-1.5,4.5c-0.5,1.6-1,3.1-1.5,4.5c-0.4,1.4-0.8,2.5-1,3.4c-0.2,0.9-0.3,1.4-0.1,1.4
				c0.2,0,0.7-0.4,1.4-1.1c0.8-0.8,1.7-1.8,2.7-3.1c1.1-1.3,2.2-2.8,3.4-4.6c1.2-1.7,2.4-3.6,3.5-5.6v1.3c-0.1,0.2-0.5,0.8-1,1.7
				c-0.5,0.9-1.2,1.9-2,3c-0.8,1.1-1.6,2.3-2.6,3.6c-0.9,1.3-1.8,2.4-2.8,3.5c-0.9,1.1-1.8,2-2.5,2.6c-0.8,0.7-1.4,1-2,1
				c-0.1,0-0.4,0-0.8-0.1c-0.4,0-0.8-0.1-1.2-0.3c-0.4-0.1-0.8-0.4-1.1-0.7c-0.3-0.3-0.5-0.7-0.5-1.2c0-0.7,0.2-1.7,0.5-2.8
				c0.3-1.1,0.7-2.4,1.2-3.8c0.5-1.4,1-2.8,1.5-4.3c0.5-1.5,1-2.9,1.5-4.4h-0.1c-0.5,1.1-1.3,2.7-2.2,4.6c-1,1.9-2,3.8-3.1,5.7
				c-1.1,1.9-2.2,3.5-3.3,4.8c-1.1,1.3-2,2-2.7,2c-1.5,0-2.7-0.5-3.6-1.5c-0.9-1-1.4-2.4-1.4-4.1c0-1.4,0.3-3.1,1-5.2
				c0.6-2,1.5-4,2.5-5.8c1.1-1.9,2.3-3.5,3.6-4.8C198.9,97,200.4,96.3,201.8,96.3z M206.4,98.2c-1.2,0-2.4,0.5-3.5,1.5
				s-2.1,2.2-3,3.7c-0.9,1.5-1.7,3.1-2.4,4.8c-0.7,1.7-1.2,3.3-1.6,4.8c-0.4,1.5-0.5,2.7-0.5,3.7c0,1,0.3,1.5,0.8,1.5
				c0.3,0,0.9-0.5,1.7-1.4c0.8-1,1.7-2.3,2.8-4c1.1-1.7,2.2-3.7,3.5-6.1c1.2-2.4,2.5-5,3.8-7.7C207.5,98.5,207,98.2,206.4,98.2z"/>
			<path class="st1" d="M222,92.1c0.7-2.2,1.3-4.2,1.8-6.1c0.5-1.9,0.8-3.2,0.8-3.9c0-0.2,0-0.4,0-0.6c0-0.2-0.1-0.5-0.2-0.8
				c0.4,0.1,0.9,0.3,1.4,0.7c0.5,0.4,1,0.8,1.5,1.2c0.5,0.4,0.9,0.9,1.2,1.2c0.3,0.4,0.5,0.7,0.5,0.9c0,0.4-0.2,1.4-0.6,2.9
				c-0.4,1.5-0.9,3.2-1.5,5.1c0.8,0,1.6,0,2.2,0c0.7,0,1.2,0,1.5,0c0.8,0,1.7-0.1,2.5-0.2c0.8-0.1,1.6-0.4,2.2-0.8
				c0,1-0.3,1.8-0.9,2.4c-0.6,0.6-1.7,0.8-3.3,0.8c-0.4,0-1,0-1.9-0.1c-0.9-0.1-1.9-0.1-2.9-0.2c-0.7,2.4-1.5,5-2.4,7.7
				c-0.9,2.7-1.6,5.2-2.3,7.5c-0.7,2.3-1.2,4.2-1.6,5.7c-0.4,1.5-0.5,2.2-0.3,2.2c0.2,0,0.6-0.3,1.4-1c0.7-0.7,1.6-1.7,2.5-2.9
				c1-1.3,2-2.8,3.2-4.6s2.3-3.8,3.4-6v1.3c-1.2,2.4-2.4,4.5-3.6,6.3c-1.2,1.9-2.4,3.4-3.5,4.7c-1.1,1.3-2.1,2.3-3,3
				c-0.9,0.7-1.6,1.1-2.1,1.1c-0.2,0-0.5-0.1-0.8-0.3c-0.3-0.2-0.6-0.4-1-0.7c-0.3-0.3-0.6-0.6-0.8-1.1c-0.2-0.4-0.3-0.9-0.3-1.4
				c0-0.6,0.2-1.7,0.6-3.3c0.4-1.6,0.9-3.4,1.5-5.5c0.6-2.1,1.3-4.3,2.1-6.7c0.7-2.4,1.4-4.7,2.1-7c-0.5,0-0.9-0.1-1.3-0.1
				c-0.4,0-0.7,0-0.9,0c-0.3,0-0.8,0-1.6,0c-0.8,0-1.4,0.3-2,0.8c0-1,0.4-1.6,1.2-1.9c0.8-0.3,2-0.5,3.7-0.5H222z"/>
			<path class="st1" d="M239.9,86.5c0.1-0.1,0.4-0.2,0.8-0.1c0.4,0,0.9,0.1,1.4,0.3c0.5,0.1,1,0.4,1.6,0.7c0.5,0.3,1,0.6,1.4,1
				c-0.3,0.2-0.7,0.9-1.3,1.8c-0.6,1-1.1,2-1.7,3.2c-0.6,1.1-1.1,2.2-1.6,3.2c-0.5,1-0.8,1.5-1,1.7c-0.4,0.4-1,0.5-1.8,0.4
				c-0.8-0.1-1.7-0.5-2.5-1.2c0.3-0.3,0.7-1,1.1-2.1c0.5-1.1,0.9-2.3,1.4-3.5c0.5-1.2,0.9-2.4,1.3-3.5
				C239.5,87.2,239.7,86.6,239.9,86.5z"/>
			<path class="st1" d="M261.7,97.7c0,0.4,0,0.9-0.2,1.4c-0.2,0.5-0.4,1-0.6,1.6c-0.2,0.5-0.4,1.1-0.6,1.6c-0.2,0.5-0.3,1.1-0.3,1.6
				c-0.5-0.1-1-0.2-1.5-0.4c-0.5-0.2-1-0.4-1.5-0.6c-0.4-0.2-0.8-0.5-1.1-0.7c-0.3-0.2-0.4-0.5-0.3-0.7c0-0.2,0.1-0.6,0.2-1
				c-0.6,0-1.4,0.2-2.2,0.5c-0.8,0.3-1.6,0.7-2.3,1.1c-0.7,0.4-1.3,0.9-1.8,1.5c-0.4,0.6-0.6,1.2-0.5,1.8c0.1,0.5,0.4,1.1,0.8,1.5
				c0.5,0.5,1.1,1,1.8,1.5c1.5-0.5,3.3-1,5.3-1.5c2-0.4,4.1-0.7,6.4-0.8v0.7c-0.9,0-1.9,0.1-3,0.2c-1.1,0.1-2.1,0.3-3.1,0.5
				c-1,0.2-1.9,0.4-2.8,0.7c-0.9,0.2-1.6,0.5-2.2,0.7c0.3,0.3,0.8,0.6,1.2,1c0.5,0.4,1,0.8,1.4,1.2c0.4,0.4,0.8,0.8,1.1,1.2
				c0.3,0.4,0.4,0.8,0.4,1.1c0,1.3-0.4,2.5-1.3,3.4c-0.9,1-1.9,1.8-3,2.4c-1.2,0.6-2.4,1.1-3.5,1.4c-1.2,0.3-2.1,0.4-2.6,0.4
				c-0.4,0-1-0.1-1.6-0.3c-0.6-0.2-1.2-0.5-1.7-0.8c-0.5-0.3-1-0.7-1.4-1.1c-0.4-0.4-0.6-0.8-0.6-1.2c0-0.9,0.3-1.7,0.8-2.5
				c0.5-0.8,1.2-1.6,2.1-2.3c0.9-0.7,2-1.4,3.2-2.1c1.2-0.6,2.5-1.2,3.9-1.8c-0.5-0.4-1.1-0.8-1.7-1.3c-0.6-0.5-1.2-1-1.8-1.5
				c-0.5-0.5-1-1.1-1.4-1.7c-0.4-0.6-0.6-1.3-0.6-2.1c0-0.6,0.3-1.3,0.8-2c0.5-0.7,1.1-1.4,1.9-1.9s1.5-1.1,2.3-1.4
				c0.8-0.4,1.6-0.6,2.2-0.6c0.7,0,1.4,0.3,2.1,1c0.7,0.7,1.3,1.3,1.8,1.9c0.2-0.7,0.5-1.4,0.7-2.1c0.2-0.7,0.2-1.2,0.1-1.7
				c0.5,0.1,1,0.2,1.5,0.4c0.5,0.1,1,0.3,1.5,0.5c0.4,0.2,0.8,0.4,1.1,0.6C261.5,97.2,261.6,97.5,261.7,97.7z M251.1,109.3
				c-3.3,1.2-5.8,2.5-7.3,4s-2.3,2.6-2.3,3.7c0,0.4,0.2,0.6,0.6,0.7c0.4,0.1,0.8,0.1,1.2,0.1c0.6,0,1.5-0.2,2.5-0.6
				c1-0.4,2-0.9,2.9-1.5c1-0.6,1.8-1.3,2.5-2.1c0.7-0.8,1-1.6,1-2.4c0-0.3-0.1-0.6-0.3-1C251.6,109.9,251.4,109.6,251.1,109.3z"/>
			<path class="st1" d="M292.1,91.3c0.7-2.2,1.3-4.2,1.8-6.1c0.5-1.9,0.8-3.2,0.8-3.9c0-0.2,0-0.4,0-0.6c0-0.2-0.1-0.5-0.2-0.8
				c0.4,0.1,0.9,0.3,1.4,0.7c0.5,0.4,1,0.8,1.5,1.2c0.5,0.4,0.9,0.9,1.2,1.2c0.3,0.4,0.5,0.7,0.5,0.9c0,0.4-0.2,1.4-0.6,2.9
				c-0.4,1.5-0.9,3.2-1.5,5.1c0.8,0,1.6,0,2.2,0c0.7,0,1.2,0,1.5,0c0.8,0,1.7-0.1,2.5-0.2c0.8-0.1,1.6-0.4,2.2-0.8
				c0,1-0.3,1.8-0.9,2.4c-0.6,0.6-1.7,0.8-3.3,0.8c-0.4,0-1,0-1.9-0.1c-0.9-0.1-1.9-0.1-2.9-0.2c-0.7,2.4-1.5,5-2.4,7.7
				c-0.9,2.7-1.6,5.2-2.3,7.5c-0.7,2.3-1.2,4.2-1.6,5.7c-0.4,1.5-0.5,2.2-0.3,2.2c0.2,0,0.6-0.3,1.4-1c0.7-0.7,1.6-1.7,2.5-2.9
				c1-1.3,2-2.8,3.2-4.6c1.1-1.8,2.3-3.8,3.4-6v1.3c-1.2,2.4-2.4,4.5-3.6,6.3c-1.2,1.9-2.4,3.4-3.5,4.7c-1.1,1.3-2.1,2.3-3,3
				c-0.9,0.7-1.6,1.1-2.1,1.1c-0.2,0-0.5-0.1-0.8-0.3c-0.3-0.2-0.6-0.4-1-0.7c-0.3-0.3-0.6-0.6-0.8-1.1c-0.2-0.4-0.3-0.9-0.3-1.4
				c0-0.7,0.2-1.9,0.6-3.5c0.4-1.7,1-3.6,1.7-5.8c-1.7,0.1-3.3,0.4-5,0.8c-1.7,0.4-3,0.8-4,1.1c0.3,0.3,0.8,0.6,1.2,1
				c0.5,0.4,1,0.8,1.4,1.2c0.4,0.4,0.8,0.8,1.1,1.2c0.3,0.4,0.4,0.8,0.4,1.1c0,1.3-0.4,2.5-1.3,3.4c-0.9,1-1.9,1.8-3,2.4
				c-1.2,0.6-2.3,1.1-3.5,1.4c-1.2,0.3-2.1,0.4-2.6,0.4c-0.4,0-1-0.1-1.6-0.3c-0.6-0.2-1.2-0.5-1.7-0.8c-0.5-0.3-1-0.7-1.4-1.1
				c-0.4-0.4-0.6-0.8-0.6-1.2c0-0.9,0.3-1.7,0.8-2.5c0.5-0.8,1.2-1.6,2.1-2.3c0.9-0.7,2-1.4,3.2-2.1c1.2-0.6,2.5-1.2,3.9-1.8
				c-0.5-0.4-1.1-0.8-1.7-1.3c-0.6-0.5-1.2-1-1.8-1.5c-0.5-0.5-1-1.1-1.4-1.7c-0.4-0.6-0.6-1.3-0.6-2.1c0-0.6,0.3-1.3,0.8-2
				c0.5-0.7,1.1-1.4,1.9-1.9s1.5-1.1,2.4-1.4c0.8-0.4,1.6-0.6,2.2-0.6c0.7,0,1.4,0.3,2.1,1c0.7,0.7,1.3,1.3,1.8,1.9
				c0.2-0.7,0.5-1.4,0.7-2.1c0.2-0.7,0.2-1.2,0.1-1.7c0.5,0.1,1,0.2,1.5,0.4c0.5,0.1,1,0.3,1.5,0.5s0.8,0.4,1.1,0.6
				c0.3,0.2,0.5,0.5,0.5,0.7c0,0.4,0,0.9-0.2,1.4c-0.2,0.5-0.4,1-0.6,1.6c-0.2,0.5-0.4,1.1-0.6,1.6c-0.2,0.5-0.3,1.1-0.3,1.6
				c-0.5-0.1-1-0.2-1.5-0.4c-0.5-0.2-1-0.4-1.5-0.6c-0.4-0.2-0.8-0.5-1.1-0.7c-0.3-0.2-0.4-0.5-0.3-0.7c0-0.2,0.1-0.6,0.2-1
				c-0.6,0-1.4,0.2-2.2,0.5c-0.8,0.3-1.6,0.7-2.3,1.1c-0.7,0.4-1.3,0.9-1.8,1.5c-0.4,0.6-0.6,1.2-0.5,1.8c0.1,0.5,0.4,1.1,0.8,1.5
				c0.5,0.5,1.1,1,1.8,1.5c1.3-0.5,2.8-0.9,4.4-1.3c1.7-0.4,3.5-0.6,5.3-0.8l3.8-12.5c-0.5,0-0.9-0.1-1.3-0.1c-0.4,0-0.7,0-0.9,0
				c-0.3,0-0.8,0-1.6,0c-0.8,0-1.4,0.3-2,0.8c0-1,0.4-1.6,1.2-1.9c0.8-0.3,2-0.5,3.7-0.5H292.1z M277.4,108.6
				c-3.3,1.2-5.8,2.5-7.3,4c-1.5,1.4-2.3,2.6-2.3,3.7c0,0.4,0.2,0.6,0.6,0.7c0.4,0.1,0.8,0.1,1.2,0.1c0.6,0,1.5-0.2,2.5-0.6
				c1-0.4,2-0.9,2.9-1.5c1-0.6,1.8-1.3,2.5-2.1c0.7-0.8,1-1.6,1-2.4c0-0.3-0.1-0.6-0.3-1C277.9,109.1,277.7,108.8,277.4,108.6z"/>
			<path class="st1" d="M304.5,98.2c0.2,0,0.6,0.1,1,0.4c0.4,0.3,0.8,0.6,1.2,1c0.5-1,1.3-1.9,2.2-2.6c1-0.7,1.9-1.1,3-1.1
				c1.5-0.1,2.6,0.2,3.4,0.8c0.8,0.6,1.2,1.7,1.2,3.3c0,1.9-0.3,3.8-0.9,5.6c0.7-0.2,1.5-0.5,2.3-0.8c0.8-0.3,1.5-0.7,2.2-1.1
				c0.7-0.4,1.3-0.8,1.8-1.2c0.5-0.4,0.9-0.8,1.1-1.1v1.2c-0.8,0.7-1.9,1.5-3.4,2.2c-1.5,0.7-3,1.3-4.4,1.7
				c-0.5,1.7-1.2,3.4-2.1,4.9c-0.9,1.6-1.8,3-2.9,4.2c-1,1.2-2.1,2.2-3.2,2.9c-1.1,0.7-2.2,1.1-3.3,1.1c-0.5,0-1.2-0.2-1.8-0.5
				c-0.7-0.3-1.3-0.8-2-1.4c-0.6-0.6-1.2-1.4-1.6-2.3c-0.4-0.9-0.7-1.9-0.7-3.1c0-1.6,0.3-3.3,0.8-5c0.6-1.7,1.2-3.2,2-4.6
				c0.8-1.4,1.6-2.5,2.3-3.3C303.5,98.7,304.1,98.2,304.5,98.2z M314.3,106.8c-0.7,0.2-1.5,0.3-2.4,0.3c-0.8,0-1.6-0.1-2.4-0.3
				c-0.8-0.2-1.5-0.6-2.1-1c-0.6-0.5-1-1.1-1.2-1.9c-0.8,1.1-1.5,2.2-2,3.2c-0.5,1.1-0.9,2.1-1.2,3.1c-0.3,1-0.5,1.9-0.6,2.7
				c-0.1,0.8-0.1,1.5-0.1,1.9c0,1.1,0.2,2,0.5,2.6c0.3,0.7,0.9,1,1.7,1c0.8,0,1.6-0.3,2.5-1c0.9-0.6,1.8-1.5,2.7-2.6
				s1.7-2.4,2.5-3.7C313,109.8,313.7,108.3,314.3,106.8z M314.5,105.9c0.3-1,0.6-2.1,0.8-3.1c0.2-1,0.3-2,0.3-3c0-0.7-0.2-1.4-0.6-2
				c-0.4-0.6-1-0.9-1.8-0.9c-0.7,0-1.3,0.2-1.8,0.7c-0.5,0.5-0.8,1.1-1.1,1.8c-0.2,0.7-0.3,1.5-0.3,2.3s0.2,1.5,0.6,2.2
				s0.8,1.2,1.4,1.6C312.7,105.9,313.5,106,314.5,105.9z"/>
			<path class="st1" d="M339.6,109.1c2-0.7,3.8-1.2,5.4-1.5l-0.1,0.7c-0.8,0.2-1.6,0.4-2.6,0.7c-0.9,0.2-1.9,0.6-2.9,1
				c-1.4,3-3,5.5-4.7,7.4c-1.7,2-3.6,2.9-5.8,2.9c-1.3,0-2.3-0.3-2.9-0.8s-1-1.1-1-1.7c0-0.6,0.2-1.3,0.7-1.9c0.5-0.7,1.1-1.3,1.9-2
				s1.7-1.3,2.8-1.9c1.1-0.6,2.2-1.1,3.4-1.7c0.3-0.7,0.7-1.7,1.1-3c0.4-1.3,0.7-2.6,0.9-4c0.2-1.3,0.2-2.5,0.1-3.5
				c-0.1-1-0.5-1.5-1.2-1.5c-0.4,0-1,0.5-1.8,1.5c-0.8,1-1.8,2.5-2.9,4.3c-1.1,1.9-2.3,4.1-3.6,6.6c-1.3,2.5-2.7,5.3-4,8.3
				c-1,3.2-1.9,6-2.7,8.6c-0.8,2.5-1.1,4.2-1.1,5.1c0,0.2,0,0.5,0,0.6c0,0.2,0,0.5,0.1,0.8c-0.4-0.1-0.8-0.4-1.4-0.8
				c-0.5-0.4-1-0.9-1.5-1.4c-0.5-0.5-0.9-1-1.2-1.5c-0.3-0.5-0.5-0.8-0.5-0.9c0-0.7,0.2-1.9,0.7-3.7c0.5-1.8,1.1-3.8,1.9-6.2
				c0.8-2.3,1.6-4.8,2.4-7.4c0.9-2.6,1.7-5.1,2.4-7.4c0.8-2.3,1.4-4.4,1.9-6.3c0.5-1.8,0.7-3.1,0.7-3.9c0.3,0,0.7,0.2,1.2,0.6
				c0.5,0.3,1,0.7,1.5,1.1c0.5,0.4,0.9,0.8,1.2,1.2c0.4,0.4,0.6,0.7,0.6,0.8c0,0.4-0.2,1.2-0.6,2.3s-0.8,2.4-1.4,3.9
				c-0.5,1.5-1.1,3.1-1.8,4.9c-0.6,1.7-1.2,3.4-1.8,5.1h0.1c0.8-1.7,1.7-3.5,2.7-5.5c1-2,2-3.9,3.1-5.7c1.1-1.8,2.2-3.3,3.2-4.6
				c1.1-1.3,2.1-2,3.2-2.3c1.6-0.3,2.8-0.2,3.6,0.4c0.9,0.6,1.4,1.6,1.7,2.8c0.3,1.2,0.3,2.6,0,4.2
				C340.6,106,340.2,107.5,339.6,109.1z M333.4,111.2c-2.1,1-3.8,2-5.3,3.1c-1.5,1.1-2.2,2.2-2.2,3.2c0,0.3,0.1,0.6,0.4,0.8
				c0.2,0.2,0.6,0.3,1,0.3c1.1,0,2.2-0.7,3.3-2.1C331.6,115.1,332.5,113.4,333.4,111.2z"/>
			<path class="st1" d="M362.9,109.1c2-0.7,3.8-1.2,5.4-1.5l-0.1,0.7c-0.8,0.2-1.6,0.4-2.6,0.7c-0.9,0.2-1.9,0.6-2.9,1
				c-1.4,3-3,5.5-4.7,7.4c-1.7,2-3.6,2.9-5.8,2.9c-1.3,0-2.3-0.3-2.9-0.8s-1-1.1-1-1.7c0-0.6,0.2-1.3,0.7-1.9c0.5-0.7,1.1-1.3,1.9-2
				s1.7-1.3,2.8-1.9c1.1-0.6,2.2-1.1,3.4-1.7c0.3-0.7,0.7-1.7,1.1-3c0.4-1.3,0.7-2.6,0.9-4c0.2-1.3,0.2-2.5,0.1-3.5
				c-0.1-1-0.5-1.5-1.2-1.5c-0.4,0-1,0.5-1.8,1.5c-0.8,1-1.8,2.5-2.9,4.3c-1.1,1.9-2.3,4.1-3.6,6.6c-1.3,2.5-2.7,5.3-4,8.3
				c-1,3.2-1.9,6-2.7,8.6c-0.8,2.5-1.1,4.2-1.1,5.1c0,0.2,0,0.5,0,0.6c0,0.2,0,0.5,0.1,0.8c-0.4-0.1-0.8-0.4-1.4-0.8
				c-0.5-0.4-1-0.9-1.5-1.4c-0.5-0.5-0.9-1-1.2-1.5c-0.3-0.5-0.5-0.8-0.5-0.9c0-0.7,0.2-1.9,0.7-3.7c0.5-1.8,1.1-3.8,1.9-6.2
				c0.8-2.3,1.6-4.8,2.4-7.4c0.9-2.6,1.7-5.1,2.4-7.4c0.8-2.3,1.4-4.4,1.9-6.3c0.5-1.8,0.7-3.1,0.7-3.9c0.3,0,0.7,0.2,1.2,0.6
				c0.5,0.3,1,0.7,1.5,1.1c0.5,0.4,0.9,0.8,1.2,1.2c0.4,0.4,0.6,0.7,0.6,0.8c0,0.4-0.2,1.2-0.6,2.3s-0.8,2.4-1.4,3.9
				c-0.5,1.5-1.1,3.1-1.8,4.9c-0.6,1.7-1.2,3.4-1.8,5.1h0.1c0.8-1.7,1.7-3.5,2.7-5.5c1-2,2-3.9,3.1-5.7c1.1-1.8,2.2-3.3,3.2-4.6
				c1.1-1.3,2.1-2,3.2-2.3c1.6-0.3,2.8-0.2,3.6,0.4c0.9,0.6,1.4,1.6,1.7,2.8c0.3,1.2,0.3,2.6,0,4.2
				C363.9,106,363.5,107.5,362.9,109.1z M356.7,111.2c-2.1,1-3.8,2-5.3,3.1c-1.5,1.1-2.2,2.2-2.2,3.2c0,0.3,0.1,0.6,0.4,0.8
				c0.2,0.2,0.6,0.3,1,0.3c1.1,0,2.2-0.7,3.3-2.1C354.8,115.1,355.8,113.4,356.7,111.2z"/>
			<path class="st1" d="M379.9,104.6c-1.2,2.3-2.4,4.4-3.6,6.3c-1.2,1.9-2.3,3.6-3.4,4.9c-1.1,1.4-2,2.4-2.9,3.2s-1.5,1.1-2,1.1
				c-0.2,0-0.6-0.1-0.9-0.3c-0.4-0.2-0.7-0.4-1.1-0.7c-0.3-0.3-0.6-0.7-0.9-1.1c-0.3-0.4-0.4-0.9-0.4-1.4c0-0.8,0.3-2,0.8-3.8
				c0.6-1.7,1.2-3.6,1.9-5.6c0.7-2,1.3-4,1.9-5.9c0.6-2,0.9-3.5,1-4.8c0.2,0.1,0.6,0.3,1.1,0.5c0.5,0.2,1,0.5,1.5,0.8
				c0.5,0.3,0.9,0.6,1.3,0.9c0.4,0.3,0.6,0.6,0.7,0.9c0,0.2-0.1,0.8-0.4,1.8s-0.7,2.2-1.1,3.6c-0.4,1.4-0.9,2.8-1.4,4.3
				c-0.5,1.5-1,2.9-1.4,4.2c-0.4,1.3-0.7,2.4-0.9,3.2c-0.2,0.9-0.2,1.3,0,1.3c0.2,0,0.7-0.4,1.4-1.1c0.7-0.8,1.6-1.8,2.6-3.1
				c1-1.3,2-2.9,3.2-4.7c1.1-1.8,2.2-3.8,3.2-5.9V104.6z M377.7,89.4c0,0.6-0.2,1.3-0.6,2.2c-0.4,0.9-0.6,1.9-0.6,3.1
				c-1.4-0.2-2.5-0.6-3.3-1.1c-0.8-0.5-1.2-1.1-1.2-1.8c0-0.6,0.2-1.4,0.6-2.2c0.4-0.9,0.6-1.8,0.5-2.8c1.3,0.1,2.4,0.5,3.3,1.1
				C377.3,88.4,377.7,88.9,377.7,89.4z"/>
			<path class="st1" d="M382,113.2c0.3-0.7,0.8-1.6,1.4-2.7c0.6-1.1,1.3-2.2,2.1-3.4c0.8-1.2,1.6-2.3,2.4-3.5
				c0.8-1.1,1.7-2.2,2.5-3.1c0.8-0.9,1.6-1.7,2.4-2.3c0.8-0.6,1.5-0.9,2.1-0.9c0.4,0,0.9,0.1,1.3,0.4c0.4,0.3,0.8,0.6,1.2,1
				s0.7,0.8,0.9,1.2c0.2,0.4,0.3,0.8,0.3,1.2c0,0.5-0.1,1.2-0.4,2.2c-0.3,1-0.6,2.1-1,3.3c-0.4,1.2-0.9,2.4-1.3,3.7
				c-0.5,1.2-0.9,2.4-1.2,3.4c-0.3,1-0.6,1.9-0.8,2.5c-0.2,0.7-0.2,1,0,1c0.2,0,0.6-0.4,1.2-1.2c0.6-0.8,1.3-1.8,2.2-3.1
				c0.9-1.3,1.8-2.8,2.8-4.5c1-1.7,2.1-3.5,3.2-5.3v1.3c-3,5.4-5.4,9.3-7.1,11.7c-1.7,2.4-3,3.7-4.1,3.8c-0.9,0.1-1.7-0.2-2.3-1
				c-0.7-0.8-1.1-1.5-1.2-2.3c-0.1-0.6,0-1.5,0.3-2.7c0.3-1.1,0.7-2.4,1.2-3.7c0.5-1.3,1.1-2.7,1.6-4.1c0.6-1.4,1.1-2.7,1.5-3.8
				c0.4-1.1,0.7-2,0.9-2.8c0.2-0.7,0.1-1.1-0.1-1.1c-0.4,0-1.1,0.6-2.2,1.7c-1.1,1.1-2.3,2.7-3.7,4.6c-1.4,1.9-2.8,4.2-4.3,6.8
				c-1.4,2.6-2.7,5.4-3.9,8.3c-0.2-0.1-0.6-0.3-1-0.6c-0.4-0.3-0.9-0.6-1.3-1c-0.4-0.4-0.8-0.7-1.2-1.1c-0.3-0.4-0.5-0.7-0.5-0.9
				c0-0.1,0.1-0.6,0.4-1.5c0.2-0.8,0.6-1.8,1-3c0.4-1.2,0.8-2.5,1.2-4c0.4-1.4,0.9-2.8,1.2-4.2c0.4-1.3,0.7-2.6,1-3.7
				c0.2-1.1,0.4-2,0.4-2.6c0-0.2,0-0.5,0-0.6s0-0.4-0.1-0.8c0.4,0.1,1,0.3,1.5,0.6c0.6,0.3,1.1,0.6,1.7,0.9c0.5,0.3,1,0.7,1.4,1
				s0.6,0.6,0.6,0.8c0,0.7-0.1,1.4-0.3,2.1c-0.2,0.7-0.5,1.5-0.8,2.6c-0.3,1-0.8,2.3-1.3,3.7C383.2,109.2,382.6,111,382,113.2z"/>
			<path class="st1" d="M418.4,112.9c-1.1,3.4-2.2,6.5-3.4,9.5s-2.4,5.6-3.6,7.9c-1.2,2.3-2.5,4.3-3.7,5.9c-1.2,1.7-2.5,2.9-3.6,3.8
				c-1.3,1-2.6,1.7-3.9,2.2c-1.3,0.5-2.5,0.7-3.6,0.7s-1.9-0.3-2.6-0.8c-0.7-0.5-1-1.3-1-2.3c0-1.2,0.5-2.5,1.4-4
				c0.9-1.5,2.2-3.2,3.9-5c1.7-1.8,3.7-3.8,6-6c2.4-2.2,4.9-4.6,7.8-7.2c0.8-2.1,1.4-3.8,1.8-5.2c0.4-1.4,0.9-2.8,1.2-4
				c-0.7,1.5-1.5,2.9-2.3,4.3c-0.8,1.4-1.6,2.7-2.3,3.8c-0.8,1.1-1.5,2-2.2,2.6c-0.7,0.7-1.4,1-2.1,1c-1.6-0.1-2.9-0.7-4.1-1.9
				c-1.1-1.2-1.7-2.6-1.7-4.4c0-1.4,0.3-3.1,0.8-5.1c0.5-2,1.3-3.9,2.2-5.7s2-3.5,3.3-4.8c1.3-1.4,2.7-2.2,4.2-2.5
				c1-0.1,2.1,0,3.3,0.6c1.2,0.5,2.3,1.2,3.2,2l0.7-2c0-0.2,0.3-0.2,0.7,0c0.4,0.3,0.9,0.6,1.4,1.1c0.5,0.4,0.9,0.9,1.3,1.3
				s0.6,0.7,0.6,0.8c0,0.9-0.3,2.3-1,4.3c-0.6,2-1.4,4.5-2.3,7.6l8.4-7.9v1.3L418.4,112.9z M411.5,118.8c-5.6,5.2-9.9,9.4-12.9,12.8
				c-3,3.3-4.6,6-4.8,8c0,0.5,0.1,1,0.4,1.3c0.3,0.3,0.7,0.5,1.2,0.7c0.5,0.1,1,0.1,1.6,0c0.6-0.1,1.1-0.3,1.5-0.6
				c0.8-0.5,1.7-1.3,2.7-2.5c1-1.2,2.1-2.6,3.3-4.4c1.2-1.8,2.4-4,3.6-6.5C409.2,125,410.4,122.1,411.5,118.8z M407,118.5
				c1-0.2,2.4-2,4.2-5.4c1.8-3.3,3.8-8.1,6-14.2c-0.5-0.3-0.9-0.6-1.3-0.7c-0.4-0.1-0.7-0.2-1-0.2c-1.2,0-2.4,0.7-3.6,1.9
				c-1.2,1.2-2.2,2.7-3.1,4.4c-0.9,1.7-1.6,3.5-2.2,5.3c-0.6,1.8-0.8,3.3-0.8,4.6c0,1.8,0.2,3,0.6,3.6
				C406.2,118.4,406.6,118.7,407,118.5z"/>
			<path class="st1" d="M456.5,98.3c0,0.1-0.1,0.6-0.2,1.3c-0.1,0.7-0.4,1.6-0.7,2.8c-0.3,1.1-0.7,2.4-1.1,4s-1,3.1-1.5,4.8
				c1.7-1.2,3.3-2.3,4.8-3.3c1.6-1,3.1-1.9,4.5-2.6l-0.2,1c-1.7,1-3.3,2-4.8,3c-1.6,1-3.1,2.1-4.6,3.2c-1.8,5.2-3.5,9.7-5.3,13.5
				c-1.7,3.8-3.5,6.9-5.4,9.3c-1.8,2.4-3.8,4.2-5.8,5.3c-2,1.1-4.2,1.7-6.5,1.7c-0.4,0-0.8,0-1.2-0.1c-0.4-0.1-0.8-0.3-1.1-0.5
				c-0.3-0.2-0.6-0.6-0.8-1.1c-0.2-0.5-0.3-1.1-0.3-1.9c0-1.3,0.7-2.8,1.9-4.7c1.2-1.9,2.8-3.9,4.7-6c1.9-2.2,4.1-4.4,6.5-6.6
				c2.4-2.3,4.9-4.5,7.5-6.6c0.7-2,1.3-3.9,1.9-5.8c0.6-1.9,1.1-3.8,1.6-5.5c-0.8,1.7-1.8,3.5-2.9,5.4c-1.1,1.9-2.2,3.7-3.2,5.4
				c-1.1,1.7-2.1,3-3.1,4.1c-1,1.1-1.8,1.6-2.6,1.6c-0.4,0-0.8-0.1-1.3-0.4c-0.5-0.3-0.9-0.6-1.4-1c-0.4-0.4-0.8-0.8-1.1-1.3
				c-0.3-0.5-0.4-0.8-0.4-1.1c0-0.5,0.1-1.3,0.4-2.3c0.2-1.1,0.6-2.2,1-3.6c0.4-1.3,0.8-2.7,1.2-4.2c0.4-1.5,0.9-2.9,1.2-4.3
				c0.4-1.4,0.7-2.6,1-3.8c0.3-1.1,0.4-2,0.5-2.7c0.2,0.1,0.6,0.3,1.2,0.6c0.5,0.3,1.1,0.7,1.6,1.1c0.5,0.4,1,0.8,1.4,1.1
				c0.4,0.3,0.6,0.6,0.6,0.7c0,0.4-0.1,1-0.4,1.9c-0.2,0.9-0.6,2-1,3.2c-0.4,1.2-0.8,2.5-1.2,3.8c-0.4,1.3-0.8,2.6-1.2,3.9
				c-0.4,1.2-0.7,2.4-1,3.4c-0.2,1-0.4,1.8-0.4,2.3c0,0.7,0.2,1.1,0.7,1.1c0.3,0,0.8-0.5,1.6-1.5c0.8-1,1.7-2.4,2.7-4
				c1-1.6,2.1-3.5,3.3-5.6c1.2-2.1,2.3-4.2,3.4-6.4c0.2-0.9,0.4-1.7,0.6-2.5c0.1-0.8,0.3-1.5,0.4-2.2c0.2,0.1,0.6,0.2,1.1,0.4
				c0.5,0.2,1,0.4,1.5,0.7c0.5,0.2,0.9,0.5,1.3,0.7C456.3,98,456.5,98.2,456.5,98.3z M446.5,115.9c-2.8,2.2-5.3,4.4-7.6,6.7
				c-2.3,2.3-4.3,4.4-6,6.4c-1.7,2-3,3.8-4,5.5c-1,1.7-1.5,3-1.5,4c-0.1,1.1,0.1,1.9,0.6,2.3s1,0.6,1.5,0.6c1.5,0,3-0.7,4.5-2.2
				c1.5-1.5,3-3.4,4.5-5.8c1.5-2.4,2.9-5.1,4.3-8.2C444,122.1,445.3,119,446.5,115.9z"/>
			<path class="st1" d="M465.7,98.2c0.2,0,0.6,0.1,1,0.4c0.4,0.3,0.8,0.6,1.2,1c0.5-1,1.3-1.9,2.2-2.6c1-0.7,1.9-1.1,3-1.1
				c1.5-0.1,2.6,0.2,3.4,0.8c0.8,0.6,1.2,1.7,1.2,3.3c0,1.9-0.3,3.8-0.9,5.6c0.7-0.2,1.5-0.5,2.3-0.8c0.8-0.3,1.5-0.7,2.2-1.1
				c0.7-0.4,1.3-0.8,1.8-1.2c0.5-0.4,0.9-0.8,1.1-1.1v1.2c-0.8,0.7-1.9,1.5-3.4,2.2c-1.5,0.7-3,1.3-4.4,1.7
				c-0.5,1.7-1.2,3.4-2.1,4.9c-0.9,1.6-1.8,3-2.9,4.2c-1,1.2-2.1,2.2-3.2,2.9c-1.1,0.7-2.2,1.1-3.3,1.1c-0.5,0-1.2-0.2-1.8-0.5
				c-0.7-0.3-1.3-0.8-2-1.4c-0.6-0.6-1.2-1.4-1.6-2.3c-0.4-0.9-0.7-1.9-0.7-3.1c0-1.6,0.3-3.3,0.8-5c0.6-1.7,1.2-3.2,2-4.6
				c0.8-1.4,1.6-2.5,2.3-3.3C464.7,98.7,465.3,98.2,465.7,98.2z M475.5,106.8c-0.7,0.2-1.5,0.3-2.4,0.3c-0.8,0-1.6-0.1-2.4-0.3
				c-0.8-0.2-1.5-0.6-2.1-1c-0.6-0.5-1-1.1-1.2-1.9c-0.8,1.1-1.5,2.2-2,3.2c-0.5,1.1-0.9,2.1-1.2,3.1c-0.3,1-0.5,1.9-0.6,2.7
				c-0.1,0.8-0.1,1.5-0.1,1.9c0,1.1,0.2,2,0.5,2.6c0.3,0.7,0.9,1,1.7,1c0.8,0,1.6-0.3,2.5-1c0.9-0.6,1.8-1.5,2.7-2.6
				s1.7-2.4,2.5-3.7C474.2,109.8,474.9,108.3,475.5,106.8z M475.7,105.9c0.3-1,0.6-2.1,0.8-3.1c0.2-1,0.3-2,0.3-3
				c0-0.7-0.2-1.4-0.6-2c-0.4-0.6-1-0.9-1.8-0.9c-0.7,0-1.3,0.2-1.8,0.7c-0.5,0.5-0.8,1.1-1.1,1.8c-0.2,0.7-0.3,1.5-0.3,2.3
				s0.2,1.5,0.6,2.2s0.8,1.2,1.4,1.6C473.9,105.9,474.7,106,475.7,105.9z"/>
			<path class="st1" d="M484.6,117.1c0,0.7,0.2,1.1,0.7,1.1c0.4,0,1-0.6,1.9-1.8c0.9-1.2,1.9-2.8,3.1-4.8c1.2-2,2.4-4.3,3.7-6.9
				c1.3-2.6,2.5-5.4,3.6-8.3c0.2,0.1,0.5,0.2,1,0.4c0.5,0.2,0.9,0.4,1.4,0.7c0.4,0.2,0.8,0.5,1.2,0.7c0.3,0.2,0.5,0.4,0.5,0.6
				c0,0.1-0.1,0.6-0.4,1.6c-0.3,1-0.6,2.2-1.1,3.6c-0.4,1.4-0.9,3-1.4,4.6c-0.5,1.7-0.9,3.2-1.3,4.6c-0.4,1.4-0.7,2.6-0.9,3.5
				c-0.2,0.9-0.3,1.4-0.2,1.4c0.2,0,0.7-0.4,1.5-1.2c0.8-0.8,1.7-1.9,2.7-3.2c1-1.4,2.1-2.9,3.2-4.7c1.1-1.8,2.2-3.7,3.2-5.7v1.3
				c-1.1,2.3-2.3,4.4-3.5,6.2c-1.2,1.9-2.4,3.5-3.5,4.8s-2.1,2.3-3,3c-0.9,0.7-1.5,1-2,1c-0.2,0-0.6-0.1-1-0.3
				c-0.4-0.2-0.8-0.4-1.1-0.6c-0.4-0.2-0.7-0.5-1-0.9c-0.3-0.3-0.4-0.7-0.4-1.1c0-0.3,0.2-1.1,0.5-2.3c0.3-1.2,0.7-2.5,1.2-3.9
				c0.4-1.4,0.9-2.8,1.3-4c0.4-1.3,0.7-2.1,0.8-2.6h-0.1c-0.5,1.1-1.2,2.6-2.1,4.4c-0.9,1.8-1.8,3.5-2.9,5.2c-1,1.7-2.1,3.1-3.2,4.3
				c-1.1,1.2-2.1,1.8-3,1.8c-0.4,0-0.9-0.1-1.4-0.3c-0.5-0.2-0.9-0.5-1.3-0.8c-0.4-0.3-0.7-0.7-1-1.1c-0.3-0.4-0.4-0.8-0.4-1.1
				c0-0.5,0.1-1.3,0.4-2.3c0.2-1.1,0.6-2.2,0.9-3.6c0.4-1.3,0.8-2.7,1.2-4.2c0.5-1.5,0.9-2.9,1.3-4.3c0.4-1.4,0.7-2.6,1-3.8
				c0.3-1.2,0.4-2,0.5-2.7c0.2,0.1,0.6,0.3,1.1,0.6c0.5,0.3,1,0.6,1.5,0.9c0.5,0.3,1,0.6,1.3,0.9s0.6,0.5,0.6,0.7c0,0.4-0.1,1-0.4,2
				c-0.2,0.9-0.6,2-1,3.2c-0.4,1.2-0.8,2.5-1.2,3.8c-0.4,1.4-0.8,2.7-1.2,3.9c-0.4,1.3-0.7,2.4-1,3.4
				C484.8,115.8,484.6,116.6,484.6,117.1z"/>
			<path class="st1" d="M513.1,114.8c0,0.2-0.1,0.6-0.2,1.1c-0.1,0.5-0.3,1.1-0.5,1.7c-0.2,0.6-0.4,1.2-0.5,1.8
				c-0.1,0.6-0.2,1.1-0.2,1.5c-0.5,0-1.1-0.2-1.6-0.4c-0.5-0.2-1-0.4-1.5-0.7c-0.4-0.2-0.8-0.5-1.1-0.8c-0.3-0.3-0.4-0.6-0.4-0.8
				c0-0.2,0.1-0.6,0.2-1.1c0.1-0.5,0.3-1.1,0.5-1.7c0.2-0.6,0.4-1.2,0.5-1.8c0.1-0.6,0.2-1.1,0.1-1.5c0.5,0,1,0.2,1.6,0.4
				c0.6,0.2,1.1,0.5,1.5,0.8c0.5,0.3,0.9,0.6,1.2,0.9C513,114.4,513.1,114.6,513.1,114.8z M515.6,95.8c-1,0.6-1.9,1.1-2.8,1.5
				c-0.7,0.3-1.5,0.6-2.2,0.7c-0.7,0.1-1.3,0-1.7-0.4c-0.5-0.5-0.7-1.2-0.6-2c0.1-0.9,0.4-1.8,1-2.8c0.5-1,1.2-2,2.1-3
				c0.9-1,1.8-1.9,2.9-2.8c1-0.8,2.1-1.5,3.2-2.1c1.1-0.6,2.1-1,3-1.1c1.1-0.1,2.1-0.1,3,0.1c0.9,0.2,1.6,0.5,2.3,1
				c0.6,0.4,1.2,0.8,1.6,1.3c0.4,0.4,0.7,0.8,1,1c1,1,1.4,2,1.1,3c-0.2,1-0.8,2.1-1.7,3.2c-0.9,1.1-2.1,2.3-3.5,3.5
				c-1.4,1.2-2.8,2.5-4.1,3.9c-1.4,1.3-2.6,2.8-3.7,4.3c-1.1,1.5-1.9,3.1-2.3,4.7c-0.2,0-0.5,0-0.9-0.1c-0.4-0.1-0.8-0.3-1.2-0.6
				c-0.4-0.2-0.8-0.5-1.1-0.8c-0.3-0.3-0.5-0.6-0.5-0.9c-0.1-0.9,0.2-2,1-3.3c0.7-1.3,1.7-2.6,2.8-4c1.1-1.4,2.3-2.8,3.6-4.2
				c1.3-1.4,2.4-2.8,3.4-4.1c1-1.3,1.7-2.5,2.1-3.7c0.4-1.1,0.4-2.1-0.1-2.8c-0.5-0.7-1.4-0.9-2.5-0.7c-1.1,0.2-2.3,0.8-3.5,1.7
				c-0.7,0.5-1.4,1.2-1.9,2.1c-0.5,0.9-0.9,1.8-1.1,2.8c-0.2,1-0.2,1.9,0,2.7C514.3,94.7,514.8,95.3,515.6,95.8z"/>
		</g>
	</g>
</g>
</svg>
