<?xml version="1.0" encoding="utf-8"?>
<!-- Generator: Adobe Illustrator 19.2.1, SVG Export Plug-In . SVG Version: 6.00 Build 0)  -->
<svg version="1.1" id="Layer_1" xmlns="http://www.w3.org/2000/svg" xmlns:xlink="http://www.w3.org/1999/xlink" x="0px" y="0px"
	 viewBox="0 0 1080 385.7" style="enable-background:new 0 0 1080 385.7;" xml:space="preserve">
<style type="text/css">
	.st0{fill:#9EC54F;}
	.st1{fill:#FFFFFF;}
</style>
<g>
	
		<image style="overflow:visible;opacity:0.75;" width="21814" height="2925" xlink:href="46C73EE4.png"  transform="matrix(0.24 0 0 0.24 -2065.0986 -164.518)">
	</image>
	<g>
		<path class="st0" d="M3138.9-159.9l-5199.4,484.4l18.7,200.4L3157.6,40.5L3138.9-159.9z M846.6,224.9l-0.9-9.8l128.6-12.2l0.9,9.8
			L846.6,224.9z"/>
	</g>
</g>
<g>
	
		<image style="overflow:visible;opacity:0.75;" width="411" height="574" xlink:href="46C73EE5.png"  transform="matrix(0.24 0 0 0.24 41.4356 152.2612)">
	</image>
	<g>
		<path class="st1" d="M81,202.9c-4,12.8-8,54.6-7.6,72.5c-0.7,1.7-5,0.9-7.9,0.2c-14.4-13.4-21.9-80.4-18.7-112
			c1-1.6,11.5-0.8,11.3,3.5c-1.5,42.3,3.8,75.6,9,86.1l0.6-0.8c0.8-28.5,7.9-60.2,13-79.1c1.1-3.5,12.2,0.9,12.6,1.9
			c-2.3,24.7,0.5,48.3,9.2,75.9c1.8-31.4,10.4-90.5,15.1-93.7c2.3-1.5,10.3,2,9.6,3.6c-9.4,33.8-14.4,72.2-16.3,115.5
			c-2.3,0.7-5.7,2-10.7-0.3c-5.6-2.5-15.2-50.3-18.3-73.2L81,202.9z"/>
	</g>
</g>
<g>
	
		<image style="overflow:visible;opacity:0.75;" width="328" height="551" xlink:href="46C73EE3.png"  transform="matrix(0.24 0 0 0.24 129.6323 149.9657)">
	</image>
	<g>
		<path class="st1" d="M160.9,213c-2.4,4-11.2,35.8-10.7,54.8c0,0-0.4,1.4-3.5,1.6c-5.2,0.5-10.9-5-11.2-8c-1.5-15.8-2.9-99,2-105.8
			c1.9-2.5,11.4-0.5,11.8,3.6c0.8,8.4-1.1,14.5-1.9,22.4c-0.9,9-2.2,47.2-1.6,53.7l1.3,0.2c2.4-9.7,10.8-46.6,17.8-47.2
			c3.7-0.4,11.5,2,11.8,5.2c0.7,7.4-4,34.1-2.2,52.8c0.5,5.8,2.7,10.3,7.3,9.9c4.4-0.4,7.7-9.1,9.1-16.8c0,0,4.1-0.8,4.6,4.3
			c0.9,9.7-7.5,20.5-17.1,21.4c-11.2,1.1-16.3-13-17.2-22.7c-0.9-9.4,0.7-25.1,1.4-29.1L160.9,213z"/>
	</g>
</g>
<g>
	
		<image style="overflow:visible;opacity:0.75;" width="332" height="415" xlink:href="46C73EEC.png"  transform="matrix(0.24 0 0 0.24 184.2118 176.0456)">
	</image>
	<g>
		<path class="st1" d="M224.7,250.8c-1.8,5.3-7.2,11.4-14.2,12c-10.6,1-19.7-9.3-21.3-27c-2.5-26.3,6.9-53.5,24.1-55.1
			c9.7-0.9,14.6,5.1,15,9.4c0.1,0.7,0,1.6,0,1.6c1.3,0.3,6.9-0.1,6.4,3.4c-2.9,16.7-5.1,32.1-4,43.6c0.6,6.7,2.2,11.1,7.1,10.6
			c7.4-0.7,8.6-10.3,8.7-19.1c0,0,4.1-0.8,4.5,3.5c0.7,7.7-3.6,24.6-14.5,25.7c-6.6,0.6-10.6-5.1-11.2-8.6L224.7,250.8z
			 M208.1,253.1c8.4-0.8,12.9-36.2,12.4-41.4c0,0-4.7-0.4-6.9-2.6c2.6-4.5,4-9.7,3.5-15c-0.1-1.3-0.5-4.8-3.2-4.5
			c-10.5,1-13.6,36.3-12.2,51.5C202.7,250.1,204.4,253.5,208.1,253.1z"/>
	</g>
</g>
<g>
	
		<image style="overflow:visible;opacity:0.75;" width="290" height="477" xlink:href="46C73EEF.png"  transform="matrix(0.24 0 0 0.24 235.3011 156.7497)">
	</image>
	<g>
		<path class="st1" d="M240.3,186.8c1.5-1.5,7.9-3.8,14.9-5.9c1.6-10.1,3.5-17.8,5-19.1c2.3-2,10.2,2.8,10,4.5l-1.8,11
			c2.7-0.7,4.9-1.2,6.6-1.5c3.1-0.6,5.8-1.4,6.8,0.4c1.1,2,2.2,0.2,4.1,1.8c0.8,0.7,3.4,3.6,3.5,4.5c0.1,1-0.1,2.2-1.9,2.4
			c-5.9,0.7-13.8,2.5-21,4.3c-3,19-5.5,40.1-4.2,53.3c0.4,3.8,2.2,5.9,5.2,5.7c8.4-0.8,19.1-12.2,18.9-19.9c0,0,5-1.8,5.9,6.9
			c0.9,9.9-11.6,22.5-20.8,23.3c-9.7,0.9-18.9-8.6-20.3-23.6c-0.8-8.7,0.4-26.4,2.5-42.3l-6.3,2.1
			C243.6,195.9,238.4,188.7,240.3,186.8z"/>
	</g>
</g>
<g>
	
		<image style="overflow:visible;opacity:0.75;" width="148" height="228" xlink:href="46C73EED.png"  transform="matrix(0.24 0 0 0.24 290.683 146.3702)">
	</image>
	<g>
		<path class="st1" d="M313.4,150.9c-2.1,12.5-6.8,28.6-10.2,35.7l-7.9,1.8c2.3-8.9,4.6-24.3,5.2-34.9L313.4,150.9z"/>
	</g>
</g>
<g>
	
		<image style="overflow:visible;opacity:0.75;" width="252" height="429" xlink:href="46C73EE2.png"  transform="matrix(0.24 0 0 0.24 305.4499 164.3083)">
	</image>
	<g>
		<path class="st1" d="M322.7,195.1c0,0,27.5,9.4,29.9,34.7c1.6,16.7-6.6,23.8-16.4,24.7c-12,1.1-24.9-11.4-26-22.9
			c-0.5-5.4,1.8-17.2,7-17.6c2-0.2,6.8,3.5,7,4.8c0.4,4.6-4.6,16.7-4.5,18c0.1,1.3,2.7,8.2,11,7.5c9-0.9,12.7-7.9,11.8-17.8
			c-1.4-14.8-15.9-24.3-25.4-24.5c-2.8-1.9-4.7-6.9-4.8-10.7c0-6.2,33.6-22.1,35.7-22.3c1.4-0.1,5.1,3.3,5.3,5.9
			c0.5,5.5-8.5,14.4-12,14.8c-1.4,0.1-2.2-3.7-3.7-3.6c-3.7,0.5-14,7.3-14.9,8.6L322.7,195.1z"/>
	</g>
</g>
<g>
	
		<image style="overflow:visible;opacity:0.75;" width="252" height="429" xlink:href="46C73EE6.png"  transform="matrix(0.24 0 0 0.24 378.9928 157.3603)">
	</image>
	<g>
		<path class="st1" d="M396.2,188.2c0,0,27.5,9.4,29.9,34.7c1.6,16.7-6.6,23.8-16.4,24.7c-12,1.1-24.9-11.4-26-22.9
			c-0.5-5.4,1.8-17.2,7-17.6c2-0.2,6.8,3.5,7,4.8c0.4,4.6-4.6,16.7-4.5,18c0.1,1.3,2.7,8.2,11,7.5c9-0.9,12.7-7.9,11.8-17.8
			c-1.4-14.8-15.9-24.3-25.4-24.5c-2.8-1.9-4.7-6.9-4.8-10.7c0-6.2,33.6-22.1,35.7-22.3c1.4-0.1,5.1,3.3,5.3,5.9
			c0.5,5.5-8.5,14.4-12,14.8c-1.4,0.1-2.2-3.7-3.7-3.6c-3.7,0.5-14,7.3-14.9,8.6L396.2,188.2z"/>
	</g>
</g>
<g>
	
		<image style="overflow:visible;opacity:0.75;" width="290" height="477" xlink:href="46C73EE7.png"  transform="matrix(0.24 0 0 0.24 424.3784 138.8865)">
	</image>
	<g>
		<path class="st1" d="M429.3,168.9c1.5-1.5,7.9-3.8,14.9-5.9c1.6-10.1,3.5-17.8,5-19.1c2.3-2,10.2,2.8,10,4.5l-1.8,11
			c2.7-0.7,4.9-1.2,6.6-1.5c3.1-0.6,5.8-1.4,6.8,0.4c1.1,2,2.2,0.2,4.1,1.8c0.8,0.7,3.4,3.6,3.5,4.5c0.1,1-0.1,2.2-1.9,2.4
			c-5.9,0.7-13.8,2.5-21,4.3c-3,19-5.5,40.1-4.2,53.3c0.4,3.8,2.2,5.9,5.2,5.7c8.4-0.8,19.1-12.2,18.9-19.9c0,0,5-1.8,5.9,6.9
			c0.9,9.9-11.6,22.5-20.8,23.3c-9.7,0.9-18.9-8.6-20.3-23.6c-0.8-8.7,0.4-26.4,2.5-42.3l-6.3,2.1
			C432.7,178,427.5,170.9,429.3,168.9z"/>
	</g>
</g>
<g>
	
		<image style="overflow:visible;opacity:0.75;" width="253" height="412" xlink:href="3ACC1743.png"  transform="matrix(0.24 0 0 0.24 474.0715 150.1345)">
	</image>
	<g>
		<path class="st1" d="M493.2,154.7c2,0.8,3.5,2,4.1,3.3c0,0,1.8-1.9,4.8-2.2c15-1.4,18.8,12.4,19.8,27.6c0.9,16-1.2,51.1-19.7,52.8
			c-15,1.4-22.4-18.1-23.4-34.1C477.7,183.1,484.5,158.3,493.2,154.7z M498.7,226.2c13.3-1.3,14.1-40.4,13.6-49
			c-0.3-4.2-0.4-14.6-6.1-14.1c-8.3,0.8-12.6,26.8-13.3,35.2c-0.1,0.6-3.3-0.3-4.3-0.9c0,0-0.5,4.1-0.1,9.5
			C489.1,218.1,492.8,226.8,498.7,226.2z"/>
	</g>
</g>
<g>
	
		<image style="overflow:visible;opacity:0.75;" width="266" height="534" xlink:href="3ACC1741.png"  transform="matrix(0.24 0 0 0.24 524.3738 146.0547)">
	</image>
	<g>
		<path class="st1" d="M540.9,259c-0.1,2.1-0.5,2.1-1.5,2.3c-0.8,0.2-7-0.7-9.7-2.2c-1.7-0.9,0.2-28.9,1.6-56.1
			c-1.1-18.1-0.4-49,3.6-49.4c3.3-0.3,8.5,2.6,8.5,4.2l0,3.2c3.7-6.6,8.3-10,12.2-10.4c15-1.4,18.8,12.4,19.8,27.6
			c0.9,16-1.2,51.1-19.7,52.8c-7.2,0.7-11.8-3.6-14.5-9.8l0,3.1C540.7,236,541.2,252.8,540.9,259z M552,221.2
			c13.3-1.3,14.1-40.4,13.6-49c-0.3-4.2-0.4-14.6-6.1-14.1c-8.3,0.8-12.6,26.8-13.3,35.2c-0.1,0.6-2.8-0.3-3.7-1
			c0,0-0.6,4.7-0.3,9.5C543,213,546.2,221.8,552,221.2z"/>
	</g>
</g>
<g>
	
		<image style="overflow:visible;opacity:0.75;" width="266" height="534" xlink:href="3ACC1747.png"  transform="matrix(0.24 0 0 0.24 577.4141 141.0437)">
	</image>
	<g>
		<path class="st1" d="M593.9,254c-0.1,2.1-0.5,2.1-1.5,2.3c-0.8,0.2-7-0.7-9.7-2.2c-1.7-0.9,0.2-28.9,1.6-56.1
			c-1.1-18.1-0.4-49,3.6-49.4c3.3-0.3,8.5,2.6,8.5,4.2l0,3.2c3.7-6.6,8.3-10,12.2-10.4c15-1.4,18.8,12.4,19.8,27.6
			c0.9,16-1.2,51.1-19.7,52.8c-7.2,0.7-11.8-3.6-14.5-9.8l0,3.1C593.8,231,594.2,247.8,593.9,254z M605.1,216.2
			c13.3-1.3,14.1-40.4,13.6-49c-0.3-4.2-0.4-14.6-6.1-14.1c-8.3,0.8-12.6,26.8-13.3,35.2c-0.1,0.6-2.8-0.3-3.7-1
			c0,0-0.6,4.7-0.3,9.5C596.1,208,599.2,216.7,605.1,216.2z"/>
	</g>
</g>
<g>
	
		<image style="overflow:visible;opacity:0.75;" width="210" height="550" xlink:href="3ACC1742.png"  transform="matrix(0.24 0 0 0.24 632.2559 103.9933)">
	</image>
	<g>
		<path class="st1" d="M641.3,148c0.3-1.6,1.4-2,2.4-2.1c-0.3,0,11.8-0.7,11,4.4c-2.8,16.4-6.7,45.2-5.5,56.5
			c0.5,5.4,2.8,7.8,5.1,7.6c8.9-0.8,10-16.9,9.8-22.8c0,0,5.2-2,5.7,3.9c0.9,9.1-2.7,26.3-18.6,27.8c-8.2,0.8-12.9-4.8-14-16.3
			C635.7,191.8,639.4,158.6,641.3,148z M641.6,125.8c-0.4-4.1,0.3-16.4,7.5-17.1c3.6-0.3,5.8,0.3,5.2,5.1c2.3,1,4.6,2.4,4.9,6.3
			c0.4,4.6-1.8,13.5-10.8,14.3C646.2,134.5,642.2,132.3,641.6,125.8z"/>
	</g>
</g>
<g>
	
		<image style="overflow:visible;opacity:0.75;" width="299" height="431" xlink:href="3ACC175D.png"  transform="matrix(0.24 0 0 0.24 662.5856 130.4504)">
	</image>
	<g>
		<path class="st1" d="M691.7,166c-4.7,13.5-9.9,38.9-8.5,52.5c0,0-1.7,2.4-4.7,2.6c-6.4,0.6-8.9-7.1-9.9-18.1
			c-2.9-30.9-2-60.4,6.8-61.3c1.7-0.2,5-0.2,5,3.5c-0.4,14.1-3.1,28-1.8,42.3l0.6-0.1c3.9-16.6,7.7-34.4,14.3-50.8
			c0.4-1.4,1.7-1.5,3-1.6c3.9-0.4,10.7,1.6,10.7,6.3c0.3,14.9-5.6,34.5-3.7,53.8c0.7,7.4,2.9,10.9,6.9,10.5
			c4.7-0.4,6.9-8.4,7.7-12.3c0,0,3.2,0,3.5,3.6c0.6,6.2-4.5,18-14.5,18.9c-9.7,0.9-13.4-9.3-14.6-21c-0.6-6.2,0.3-21.6,1-29.1
			L691.7,166z"/>
	</g>
</g>
<g>
	
		<image style="overflow:visible;opacity:0.75;" width="262" height="534" xlink:href="3ACC175E.png"  transform="matrix(0.24 0 0 0.24 712.0114 126.9362)">
	</image>
	<g>
		<path class="st1" d="M736.8,234.1c6.2-3.5,12.2-19.6,13.5-36.4c-2.1,3.7-6.1,12-11.7,12.5c-11.5,1.1-19.9-9.2-21.6-27
			c-2.5-26.3,7.3-49.9,25.3-51.6c5.7-0.5,12.5,0.7,13.4,10c0.1,0.9,0,2,0,2c0.9-0.1,6.5,0,6.4,3.4c-0.6,11.6-0.3,34-2.9,56.7
			c-3,25.3-10.6,37.9-18.5,38.6c-10.9,1-20.8-4-22.9-8.1c-2.3-4.5,0.6-10.5,7.4-9.9C727.4,228.4,734.5,233,736.8,234.1z M737,201.1
			c7.6-0.7,13.5-23.5,13.2-38.1c0,0-1.8,0.3-4.1-1.8c1.2-3.8,1.2-11.5,0.9-15c-0.3-3-2.1-5.8-4.9-5.5c-10.5,1-14.8,32.7-13.4,48
			C729.6,197.5,733.3,201.4,737,201.1z"/>
	</g>
</g>
<g>
	
		<image style="overflow:visible;opacity:0.75;" width="245" height="532" xlink:href="3ACC175F.png"  transform="matrix(0.24 0 0 0.24 789.7643 120.2581)">
	</image>
	<g>
		<path class="st1" d="M799.6,130.6c0.2-0.9,1.6-1.5,3.3-1.6c2.7-0.3,7.2,1.5,7.9,5.3c-3.1,17.4-6,35.9-4.3,53.4
			c0.4,3.9,1.3,7.5,4,7.2c4.7-0.4,9.4-15.4,10.2-22.1c0.7-5.9,0.6-47.5,5.3-47.9c4.7-0.4,9.6,1.7,9.9,4.9
			c1.3,13.8-3.6,29.5-4.2,42.7c-0.8,14.9-2.2,46.9-0.9,61.3c0.1,0.9-0.5,1.2-1.3,1.3c-2.1,0.2-6.9-1.3-9.3-2.3
			c-1.2-0.6-1.6-1.2-1.8-3.5c-0.5-5.5,1.5-25.2,1.5-36.6c-1.4,4.7-4.3,9.6-9.3,10.1c-11.5,1.1-14.8-11.1-15.6-19.6
			C793.2,165.6,795.9,147.1,799.6,130.6z"/>
	</g>
</g>
<g>
	
		<image style="overflow:visible;opacity:0.75;" width="253" height="412" xlink:href="3ACC1744.png"  transform="matrix(0.24 0 0 0.24 838.2207 115.7312)">
	</image>
	<g>
		<path class="st1" d="M857.4,120.3c2,0.8,3.5,2,4.1,3.3c0,0,1.8-1.9,4.8-2.2c15-1.4,18.8,12.4,19.8,27.6c0.9,16-1.2,51.1-19.7,52.8
			c-15,1.4-22.4-18.1-23.4-34.1C841.8,148.7,848.6,123.9,857.4,120.3z M862.8,191.8c13.3-1.3,14.1-40.4,13.6-49
			c-0.3-4.2-0.4-14.6-6.1-14.1c-8.3,0.8-12.6,26.8-13.3,35.2c-0.1,0.6-3.3-0.3-4.3-0.9c0,0-0.5,4.1-0.1,9.5
			C853.2,183.7,856.9,192.4,862.8,191.8z"/>
	</g>
</g>
<g>
	
		<image style="overflow:visible;opacity:0.75;" width="314" height="396" xlink:href="3ACC1745.png"  transform="matrix(0.24 0 0 0.24 889.6678 112.2916)">
	</image>
	<g>
		<path class="st1" d="M923.5,171.3c-1.2,6.9-4.2,22.7-10.8,23.3c-6.3,0.6-17.3-8.3-18.2-18.2c-1.6-17,3.8-54.3,9.1-54.8
			c1.9-0.2,5.9,1.3,7.4,3.3c-3.5,18.5-5.5,39.2-3.8,57.2l2.1,0.5c8.7-18,14.1-48.2,14.3-63.7c0-1.3,1-1.9,2.3-2
			c4.2-0.4,9.7,2.2,10,4.6c0.5,5.4-3.4,37.5-2.4,48.4c0.3,3.3,2.2,11.1,7.1,10.6c6.2-0.6,7.5-14.2,7.5-14.2c1.3-0.1,3.9-0.2,4.2,3.3
			c0.5,5.5-5.7,19.6-13.8,20.3c-10.9,1-13.7-10.6-14.1-18.9L923.5,171.3z"/>
	</g>
</g>
<g>
	
		<image style="overflow:visible;opacity:0.75;" width="310" height="578" xlink:href="3ACC1746.png"  transform="matrix(0.24 0 0 0.24 931.415 64.7127)">
	</image>
	<g>
		<path class="st1" d="M975.1,145.5c0.4,0,0.7,0.2,0.8,0.8l0,0.3c-1,11.1-5.4,16.3-10.4,16.8c-5.9,0.6-8.2-2.9-8.7-7.5
			c-1.8-19.3,27.9-39.5,25.9-60.3c-0.9-9.3-11.7-13.5-20.7-12.7c-7.2,0.7-13.2,4.5-12.5,11.3c0.4,4.6,2.8,10.3,7.6,15.7
			c-11.9,0.7-20.1-8.3-21.1-17.9c-1.3-13.5,11.4-21.1,25.2-22.4c14.6-1.4,30.5,4.4,31.8,18.1c2.5,26.9-28.3,44.6-26.5,63.7
			c0.2,2.3,1.2,3.5,2.3,3.4c1.7-0.2,3.8-2.8,5-8.2C974,146,974.5,145.6,975.1,145.5z M974.2,180.6c0.4,4.6-2,9.6-7.4,10.1
			c-6.6,0.6-9.5-3.1-9.9-7.4c-0.5-5.1,2.6-10.8,8-11.3C970.5,171.4,973.8,175.9,974.2,180.6z"/>
	</g>
</g>
</svg>
