<svg id="Layer_1" data-name="Layer 1" xmlns="http://www.w3.org/2000/svg" xmlns:xlink="http://www.w3.org/1999/xlink" viewBox="0 0 725.08 369.673"><defs><style>.cls-1{fill:#fff;}.cls-2{fill:#8dc640;}.cls-3{fill:url(#linear-gradient);}</style><linearGradient id="linear-gradient" x1="361.899" y1="-11.568" x2="361.899" y2="109.581" gradientUnits="userSpaceOnUse"><stop offset="0" stop-color="#8dc640"/><stop offset="1" stop-color="#669540"/></linearGradient></defs><title>header-5</title><path class="cls-1" d="M9.93,181.431H22.748v9.027H9.93v26.088H0V153.357H26.269v9.027H9.93Z"/><path class="cls-1" d="M30.241,168.522c0-10.11,5.326-15.888,15.075-15.888s15.075,5.777,15.075,15.888v32.859c0,10.11-5.325,15.888-15.075,15.888s-15.075-5.777-15.075-15.888Zm9.93,33.491c0,4.514,1.986,6.229,5.146,6.229s5.146-1.715,5.146-6.229V167.89c0-4.513-1.985-6.229-5.146-6.229s-5.146,1.716-5.146,6.229Z"/><path class="cls-1" d="M87.565,216.546c-.542-1.625-.9-2.617-.9-7.763v-9.931c0-5.867-1.986-8.033-6.5-8.033H76.732v25.727H66.8V153.357H81.788c10.291,0,14.714,4.784,14.714,14.533v4.965c0,6.5-2.076,10.743-6.5,12.819,4.965,2.076,6.59,6.86,6.59,13.45v9.749c0,3.069.09,5.326,1.083,7.673ZM76.732,162.384v19.408h3.882c3.7,0,5.958-1.625,5.958-6.681v-6.229c0-4.514-1.534-6.5-5.055-6.5Z"/><path class="cls-1" d="M138.119,198.221l6.771-44.864H158.7v63.189h-9.388V171.231l-6.86,45.315h-9.389l-7.4-44.684v44.684H117V153.357h13.812Z"/><path class="cls-1" d="M198.06,216.546H188.039l-1.715-11.464H174.138l-1.715,11.464h-9.117l10.11-63.189h14.533ZM175.4,196.506h9.569l-4.785-31.956Z"/><path class="cls-1" d="M211.512,170.779v45.768h-8.937V153.357h12.457l10.2,37.823V153.357h8.847v63.189h-10.2Z"/><path class="cls-1" d="M250.51,195.6l-12.548-42.247h10.381l7.583,28.8,7.583-28.8h9.479L260.439,195.6v20.942h-9.93Z"/><path class="cls-1" d="M269.739,216.546v-9.568h9.569v8.575l-4.333,10.021h-4.062l2.618-9.027Z"/><path class="cls-1" d="M329.319,192.986v8.4c0,10.11-5.056,15.888-14.8,15.888s-14.8-5.777-14.8-15.888V168.522c0-10.11,5.056-15.888,14.8-15.888s14.8,5.777,14.8,15.888v6.139h-9.389V167.89c0-4.513-1.985-6.229-5.146-6.229s-5.146,1.716-5.146,6.229v34.123c0,4.514,1.986,6.139,5.146,6.139s5.146-1.625,5.146-6.139v-9.027Z"/><path class="cls-1" d="M334.555,168.522c0-10.11,5.326-15.888,15.075-15.888s15.075,5.777,15.075,15.888v32.859c0,10.11-5.325,15.888-15.075,15.888s-15.075-5.777-15.075-15.888Zm9.93,33.491c0,4.514,1.986,6.229,5.146,6.229s5.146-1.715,5.146-6.229V167.89c0-4.513-1.985-6.229-5.146-6.229s-5.146,1.716-5.146,6.229Z"/><path class="cls-1" d="M371.116,153.357h9.93v54.162h16.34v9.027h-26.27Z"/><path class="cls-1" d="M401.719,153.357h9.93v54.162h16.34v9.027h-26.27Z"/><path class="cls-1" d="M442.251,179.987h13.631v9.027H442.251v18.5H459.4v9.027H432.321V153.357H459.4v9.027H442.251Z"/><path class="cls-1" d="M480.437,181.341h13.9v20.04c0,10.11-5.056,15.888-14.8,15.888s-14.8-5.777-14.8-15.888V168.522c0-10.11,5.056-15.888,14.8-15.888s14.8,5.777,14.8,15.888v6.139H484.95V167.89c0-4.513-1.985-6.229-5.146-6.229s-5.146,1.716-5.146,6.229v34.123c0,4.514,1.986,6.139,5.146,6.139s5.146-1.625,5.146-6.139V190.367h-4.514Z"/><path class="cls-1" d="M510.68,179.987h13.631v9.027H510.68v18.5h17.151v9.027H500.75V153.357h27.081v9.027H510.68Z"/><path class="cls-1" d="M561.324,152.634c9.658,0,14.623,5.777,14.623,15.888v1.986H566.56V167.89c0-4.513-1.806-6.229-4.965-6.229s-4.965,1.716-4.965,6.229c0,13,19.408,15.437,19.408,33.491,0,10.11-5.056,15.888-14.8,15.888s-14.8-5.777-14.8-15.888V197.5h9.389v4.514c0,4.514,1.985,6.139,5.146,6.139s5.146-1.625,5.146-6.139c0-13-19.408-15.437-19.408-33.491C546.7,158.411,551.665,152.634,561.324,152.634Z"/><path class="cls-1" d="M591.655,179.987h13.631v9.027H591.655v18.5h17.152v9.027H581.726V153.357h27.082v9.027H591.655Z"/><path class="cls-1" d="M624.877,179.987h13.631v9.027H624.877v18.5h17.151v9.027H614.947V153.357h27.081v9.027H624.877Z"/><path class="cls-1" d="M669.2,198.221l6.771-44.864h13.812v63.189h-9.389V171.231l-6.86,45.315h-9.388l-7.4-44.684v44.684h-8.666V153.357H661.89Z"/><path class="cls-1" d="M710.366,152.634c9.659,0,14.624,5.777,14.624,15.888v1.986H715.6V167.89c0-4.513-1.8-6.229-4.965-6.229s-4.965,1.716-4.965,6.229c0,13,19.408,15.437,19.408,33.491,0,10.11-5.055,15.888-14.8,15.888s-14.8-5.777-14.8-15.888V197.5h9.388v4.514c0,4.514,1.986,6.139,5.146,6.139s5.146-1.625,5.146-6.139c0-13-19.408-15.437-19.408-33.491C695.742,158.411,700.707,152.634,710.366,152.634Z"/><path class="cls-2" d="M134.192,259.193c0,29.673-16.709,69-38.027,69-14.692,0-22.471-14.548-22.471-33.85,0-9.939,1.008-21.318,10.947-26.648a24.641,24.641,0,0,1-1.729-9.795c0-15.124,10.947-31.833,27.08-31.833C129.871,226.063,134.192,243.348,134.192,259.193Zm-18.582-28.809c-11.235.144-20.022,17.141-20.022,31.257,0,6.771,2.017,12.82,6.77,16.133a2.775,2.775,0,0,1,1.44,2.161c0,.576-.432,1.008-1.584,1.008-4.177,0-8.931-2.881-11.523-4.9l-.576,2.017c-2.593,8.787-4.465,17.718-4.177,25.5,0,10.659,2.449,18.869,8.21,21.318,13.4-.145,26.648-48.543,26.648-76.487C120.8,242.2,121.084,234.273,115.611,230.384Z"/><path class="cls-2" d="M148.163,312.344c0,3.89,1.008,6.05,3.169,6.05,8.354,0,13.828-27.8,20.31-57.617,1.008-4.753,4.465-6.914,7.922-6.914a5.9,5.9,0,0,1,6.194,5.906c0,5.762-12.1,46.094-12.1,56.032,0,2.593.576,3.89,1.873,3.89,5.186,0,13.972-18.437,15.557-21.606.864-1.729,1.729-2.449,2.449-2.449.576,0,1.008.433,1.008,1.44a6.468,6.468,0,0,1-.576,2.449c-2.017,5.041-11.379,28.664-23.479,28.664-4.321,0-9.507-2.3-9.795-12.1-3.889,7.49-8.643,12.1-14.548,12.1-8.066,0-10.8-6.193-10.8-15.412,0-13.973,6.05-34.858,8.931-52.144a7.647,7.647,0,0,1,7.778-6.482c3.169,0,6.194,1.873,6.194,5.33a4.9,4.9,0,0,1-.144,1.44C153.493,283.823,148.163,302.982,148.163,312.344Z"/><path class="cls-2" d="M200.449,254.3c1.729-6.482,3.457-12.676,5.33-18.582.72-2.448,3.169-3.6,5.906-3.6,3.6,0,7.49,2.3,7.49,7.2,0,3.6-2.161,9.938-3.745,15.7,7.058.576,13.684,1.009,13.684,3.025s-5.33,3.457-15.845,4.609c-5.474,19.014-12.244,41.34-12.244,51.711,0,3.745.864,6.05,3.025,6.05,5.618,0,12.964-15.845,17-22.326,1.008-1.729,1.729-2.593,2.449-2.593.576,0,1.008.576,1.008,1.584a6.468,6.468,0,0,1-.576,2.449c-2.017,5.041-11.956,28.664-24.055,28.664-5.618,0-10.371-4.033-10.371-14.836,0-9.507,3.6-29.817,8.643-50.415l-4.609-.433c-1.729-.144-2.449-2.017-2.449-3.889,0-2.161,1.008-4.466,2.593-4.466C195.84,254.151,198.145,254.151,200.449,254.3Z"/><path class="cls-2" d="M288.168,311.336c-5.618,9.938-13.252,17-21.462,17-11.523,0-16.277-10.8-16.277-24.056a69.645,69.645,0,0,1,6.482-28.952c1.152-2.593,3.6-6.05,7.2-5.474,2.737-9.075,8.643-15.989,17.717-15.989,11.523,0,16.277,9.795,16.277,22.183,0,9.939-2.881,21.463-7.634,31.113,5.186-.144,10.659-2.593,14.116-9.074.864-1.44,1.584-2.449,2.593-2.449.432,0,.864.288.864,1.009a7.709,7.709,0,0,1-.576,2.593C305.6,304.566,297.963,311.336,288.168,311.336Zm-9.651-1.44c-7.634-2.593-11.956-8.5-14.26-15.413a65.247,65.247,0,0,0-1.584,13.54c0,7.635,1.873,13.4,6.626,13.4a3.975,3.975,0,0,0,1.3-.145C273.332,320.843,276.068,316.377,278.517,309.9Zm-7.634-26.072c0,8.5,2.593,17,9.363,21.03,3.169-10.227,5.474-23.19,5.474-32.554,0-7.49-1.3-12.964-4.753-12.964C276.068,259.336,270.883,271.292,270.883,283.823Z"/><path class="cls-2" d="M316.83,301.109c-1.152,5.906-2.449,11.956-3.745,19.014,15.845-2.017,28.521-6.481,36.011-22.038.72-1.44,1.584-2.161,2.3-2.161.576,0,1.008.576,1.008,1.585a5.657,5.657,0,0,1-.432,2.017c-7.058,17.141-20.742,24.343-38.315,27.656,5.186,2.448,9.363,13.54,9.363,23.911,0,9.65-3.745,18.581-14.116,18.581-8.643,0-11.812-8.066-11.812-20.886,0-13.828,3.6-32.986,7.922-53.44,8.5-40.332,16.277-75.91,36.011-75.91,3.457,0,6.05,1.872,6.626,4.177,2.161,1.152,5.618,4.466,5.618,12.388C353.273,270.428,330.658,300.532,316.83,301.109Zm-1.873,47.679a44.4,44.4,0,0,0-3.889-17.718c-4.753,22.327-5.474,26.216-5.474,29.241s1.008,4.9,2.449,4.9C311.645,365.208,314.958,358.294,314.958,348.787ZM343.91,224.91c-6.482,0-15.125,25.207-26.216,71.445,13.252-11.812,29.1-52.432,29.1-65.972C346.791,227.07,346.647,224.91,343.91,224.91Z"/><path class="cls-2" d="M386.976,256.024c-3.457,0-8.066-5.33-8.066-10.228,0-6.193,13.54-20.454,32.554-20.454,18.582,0,33.418,15.989,33.418,33.706,0,15.989-10.083,32.842-31.545,34.57,6.77,9.939,7.058,24.775,12.243,24.775,4.9,0,12.243-11.955,16.276-20.31.576-1.3,1.441-1.873,2.161-1.873.576,0,1.152.433,1.152,1.44a4.96,4.96,0,0,1-.433,1.873c-4.32,10.947-12.243,28.952-23.479,28.952-10.947,0-11.092-13.828-16.854-30.1-3.168,11.235-5.762,20.742-6.481,25.5a4.828,4.828,0,0,1-5.042,3.89A5.584,5.584,0,0,1,387.119,322c0-3.457,3.025-18.726,5.186-27.944a4.075,4.075,0,0,1-1.872-3.457c0-1.873,1.3-3.745,4.033-4.609,3.313-12.532,7.634-26.36,12.532-43.069.863-2.881,3.6-4.177,6.338-4.177,3.313,0,6.625,1.729,6.625,4.465a2.461,2.461,0,0,1-.144,1.009c-3.6,13.4-8.354,29.24-12.388,43.645a15.009,15.009,0,0,1,2.449,1.729c14.691-4.177,23.334-20.021,23.334-36.3a42.6,42.6,0,0,0-3.744-17.717,24.133,24.133,0,0,0-10.8-2.449c-11.38,0-22.759,7.635-28.665,20.742A3.121,3.121,0,0,1,386.976,256.024Z"/><path class="cls-2" d="M486.076,269.852c0,13.828-10.371,33.273-25.639,33.273a18.818,18.818,0,0,1-5.475-.864c0,6.338.576,17.285,9.508,17.285,13.684,0,21.029-15.557,24.775-21.462.863-1.44,1.584-2.017,2.3-2.017.576,0,1.008.576,1.008,1.44a5.676,5.676,0,0,1-.432,2.017c-6.482,16.133-16.565,28.809-33.131,28.809-12.387,0-17.429-11.235-17.429-24.92,0-21.462,12.388-49.263,27.513-49.263,3.168,0,6.481,1.009,8.21,2.449C483.34,257.32,486.076,262.793,486.076,269.852ZM456.4,298.516c8.5,0,20.742-22.759,20.742-33.994,0-2.3-.289-4.753-2.449-4.753-8.211,0-17.717,21.318-19.445,38.6A3.179,3.179,0,0,0,456.4,298.516Z"/><path class="cls-2" d="M526.984,316.089c0,2.161.72,3.6,2.016,3.6,3.025,0,7.49-7.635,14.261-21.606.72-1.585,1.872-2.449,2.593-2.449.432,0,.864.433.864,1.44a6.458,6.458,0,0,1-.576,2.449c-2.017,5.041-11.091,28.664-22.183,28.664-4.465,0-9.795-2.448-9.795-13.252a19.279,19.279,0,0,1,.145-2.736c-4.754,9.795-10.228,15.988-14.837,15.988-7.778,0-11.091-8.354-11.091-19.59,0-21.895,12.676-54.448,29.24-54.448,5.762,0,9.363,6.194,9.65,10.659h.865a8.173,8.173,0,0,1,7.922,8.354,10.871,10.871,0,0,1-.145,2.161C532.025,293.618,526.984,309.175,526.984,316.089Zm-7.923-27.368,4.609-20.742c0-2.448-.433-5.474-3.89-5.474-9.65,0-18.437,33.706-18.437,48.831,0,4.321.721,7.058,2.449,7.058C509.123,318.394,515.461,304.71,519.062,288.721Z"/><path class="cls-2" d="M575.958,259.912c-8.066,0-18.87,27.225-18.87,45.086,0,9.65,2.881,15.557,10.516,15.557,11.379,0,21.75-14.261,25.783-22.471.721-1.585,1.585-2.161,2.3-2.161.576,0,1.009.433,1.009,1.44a7.085,7.085,0,0,1-.433,2.161c-5.041,12.388-16.709,29.24-33.273,29.24-14.4,0-20.021-11.812-20.021-26.5,0-21.462,12.387-48.11,27.8-48.11a12.608,12.608,0,0,1,7.778,2.737c6.482,1.152,8.931,8.643,8.931,16.421,0,10.371-2.881,19.3-10.659,19.3-3.312,0-6.482-1.873-6.482-4.466,0-5.762,9.075-10.659,9.075-22.614C579.415,262.505,577.4,259.912,575.958,259.912Z"/><path class="cls-2" d="M628.244,317.241c0,2.3.721,3.6,2.594,3.6,4.753,0,9.506-11.092,15.557-22.759.72-1.44,1.872-2.449,2.592-2.449q.864,0,.865,1.3a7.721,7.721,0,0,1-.576,2.593c-2.018,5.186-9.219,29.1-21.751,29.1-5.762,0-11.235-4.033-11.235-12.676,0-12.532,11.379-39.18,11.379-48.687,0-2.161-.576-3.457-2.016-3.457-4.178,0-15.557,17-21.751,43.789-3.313,15.557-2.881,21.03-8.643,21.03-2.737,0-5.474-2.017-5.474-6.338,0-9.363,10.083-60.5,19.878-93.484.72-2.593,3.024-3.745,5.618-3.745,3.457,0,7.2,2.3,7.2,6.05,0,4.609-4.033,12.676-11.091,43.5,5.186-11.379,11.523-19.733,18.149-19.733,8.5,0,10.659,6.77,10.659,12.1C640.2,282.959,628.244,307.879,628.244,317.241Z"/><path class="cls-3" d="M123.262,0l20.043,101.176c.916,4.622,5.356,8.4,9.868,8.4h417.45c4.512,0,8.953-3.782,9.868-8.4L600.536,0Z"/><path class="cls-1" d="M580.493,101.176c-.916,4.622-5.357,8.4-9.868,8.4H153.174c-4.512,0-8.953-3.782-9.868-8.4L123.262,0H120.2l20.17,101.813c1.211,6.116,6.837,10.906,12.806,10.906h417.45c5.969,0,11.594-4.79,12.806-10.906L603.6,0h-3.064Z"/><path class="cls-1" d="M153.513,29.582H185.9v10.05H174.75v44.9H164.409v-44.9h-10.9Z"/><path class="cls-1" d="M286.572,39l-7.129,6.795q-7.278-7.688-16.37-7.688a17.931,17.931,0,0,0-18.184,18.181,19.145,19.145,0,0,0,2.325,9.512A16.668,16.668,0,0,0,253.8,72.32a19.087,19.087,0,0,0,9.458,2.371,19.5,19.5,0,0,0,8.112-1.658A29.089,29.089,0,0,0,279.443,67l6.908,7.208a37.816,37.816,0,0,1-11.211,8.032,30.58,30.58,0,0,1-12.049,2.241q-12.485,0-20.443-7.917t-7.953-20.3a27.759,27.759,0,0,1,3.623-14.232,26.9,26.9,0,0,1,10.377-10.013,29.246,29.246,0,0,1,14.541-3.787A30.864,30.864,0,0,1,286.572,39Z"/><path class="cls-1" d="M236.05,39l-7.129,6.795Q221.647,38.1,212.554,38.1a17.933,17.933,0,0,0-18.189,18.181,19.13,19.13,0,0,0,2.328,9.512,16.653,16.653,0,0,0,6.586,6.522,19.075,19.075,0,0,0,9.457,2.371,19.485,19.485,0,0,0,8.11-1.658A29.058,29.058,0,0,0,228.921,67l6.909,7.208a37.825,37.825,0,0,1-11.212,8.032,30.57,30.57,0,0,1-12.049,2.241q-12.485,0-20.441-7.917t-7.955-20.3A27.759,27.759,0,0,1,187.8,42.036a26.922,26.922,0,0,1,10.377-10.013,29.248,29.248,0,0,1,14.542-3.787A30.863,30.863,0,0,1,236.05,39Z"/><rect class="cls-1" x="307.169" y="38.044" width="3.076" height="40.119"/><path class="cls-1" d="M324.594,41.256V39.683h8.8v1.573h-3.583V55.75h-1.638V41.256Z"/><path class="cls-1" d="M345.515,43.866V55.75h-1.506V53.707a6.574,6.574,0,0,1-2.158,1.757,6.031,6.031,0,0,1-6.925-1.239,6.137,6.137,0,0,1-1.785-4.452,6,6,0,0,1,1.8-4.39,5.861,5.861,0,0,1,4.334-1.823,5.612,5.612,0,0,1,2.65.622,6.053,6.053,0,0,1,2.081,1.866V43.866Zm-6.11,1.168a4.619,4.619,0,0,0-4.074,2.388,4.808,4.808,0,0,0,0,4.8,4.736,4.736,0,0,0,1.73,1.784,4.526,4.526,0,0,0,2.326.637,4.793,4.793,0,0,0,2.381-.631A4.417,4.417,0,0,0,343.5,52.3a4.874,4.874,0,0,0,.608-2.431,4.736,4.736,0,0,0-1.358-3.449A4.507,4.507,0,0,0,339.4,45.034Z"/><path class="cls-1" d="M348.374,43.866h1.563v1.739a5.435,5.435,0,0,1,1.477-1.536,2.89,2.89,0,0,1,1.614-.508,2.8,2.8,0,0,1,1.355.4l-.8,1.29a2.124,2.124,0,0,0-.808-.205,2.2,2.2,0,0,0-1.473.628,3.968,3.968,0,0,0-1.082,1.948,18.6,18.6,0,0,0-.285,4.106V55.75h-1.563Z"/><path class="cls-1" d="M355.87,43.866h1.56v1.739a5.468,5.468,0,0,1,1.477-1.536,2.9,2.9,0,0,1,1.614-.508,2.807,2.807,0,0,1,1.357.4l-.8,1.29a2.127,2.127,0,0,0-.808-.205,2.2,2.2,0,0,0-1.474.628,3.951,3.951,0,0,0-1.082,1.948,18.638,18.638,0,0,0-.286,4.106V55.75h-1.56Z"/><path class="cls-1" d="M374.25,43.866V55.75H372.74V53.707a6.544,6.544,0,0,1-2.154,1.757,6.036,6.036,0,0,1-6.927-1.239,6.146,6.146,0,0,1-1.782-4.452,6.007,6.007,0,0,1,1.8-4.39,5.877,5.877,0,0,1,4.336-1.823,5.583,5.583,0,0,1,2.648.622,6.024,6.024,0,0,1,2.08,1.866V43.866Zm-6.11,1.168a4.622,4.622,0,0,0-4.077,2.388,4.811,4.811,0,0,0,.006,4.8,4.674,4.674,0,0,0,1.732,1.784,4.505,4.505,0,0,0,2.327.637,4.783,4.783,0,0,0,2.377-.631,4.453,4.453,0,0,0,1.73-1.715,4.871,4.871,0,0,0,.6-2.431,4.725,4.725,0,0,0-1.355-3.449A4.506,4.506,0,0,0,368.14,45.034Z"/><path class="cls-1" d="M376.667,43.866H378.2v2.129a6.353,6.353,0,0,1,2.035-1.827,4.979,4.979,0,0,1,2.422-.607,4.209,4.209,0,0,1,2.365.677,4.031,4.031,0,0,1,1.527,1.823,9.663,9.663,0,0,1,.49,3.573V55.75h-1.528V50.08a13.7,13.7,0,0,0-.172-2.74,3.028,3.028,0,0,0-1.019-1.778,3.1,3.1,0,0,0-1.968-.592,3.782,3.782,0,0,0-2.484.916,4.307,4.307,0,0,0-1.45,2.273,15.783,15.783,0,0,0-.219,3.231v4.36h-1.528Z"/><path class="cls-1" d="M390.624,39.454h1.527v4.412h2.425v1.323h-2.425V55.75h-1.527V45.188h-2.087V43.866h2.087Z"/><path class="cls-1" d="M420.572,42.666l-1.265.97a6.947,6.947,0,0,0-2.517-2.069,7.417,7.417,0,0,0-3.23-.706,7.155,7.155,0,0,0-3.56.924,6.658,6.658,0,0,0-2.541,2.48,6.86,6.86,0,0,0-.9,3.5,6.589,6.589,0,0,0,2.012,4.907,7,7,0,0,0,5.087,1.963,7.149,7.149,0,0,0,5.646-2.642l1.265.96a8.087,8.087,0,0,1-3,2.365,9.4,9.4,0,0,1-4.014.836,8.369,8.369,0,0,1-6.654-2.805,8.477,8.477,0,0,1-2.038-5.725,7.965,7.965,0,0,1,2.472-5.937,8.54,8.54,0,0,1,6.2-2.406,9.068,9.068,0,0,1,4.059.891A7.878,7.878,0,0,1,420.572,42.666Z"/><path class="cls-1" d="M428.4,43.561a5.883,5.883,0,0,1,4.555,1.989,6.374,6.374,0,0,1-.095,8.643,6.283,6.283,0,0,1-8.927,0,6.362,6.362,0,0,1-.095-8.636A5.894,5.894,0,0,1,428.4,43.561Zm0,1.5a4.422,4.422,0,0,0-3.28,1.407,4.721,4.721,0,0,0-1.366,3.406,4.8,4.8,0,0,0,.623,2.4,4.387,4.387,0,0,0,1.688,1.719,4.792,4.792,0,0,0,4.668,0,4.38,4.38,0,0,0,1.685-1.719,4.805,4.805,0,0,0,.63-2.4,4.707,4.707,0,0,0-1.378-3.406A4.408,4.408,0,0,0,428.4,45.058Z"/><path class="cls-1" d="M436.461,43.866h1.527v5.547a11.8,11.8,0,0,0,.221,2.8,3.149,3.149,0,0,0,1.25,1.727,3.807,3.807,0,0,0,2.2.632,3.692,3.692,0,0,0,2.172-.617,3.122,3.122,0,0,0,1.228-1.622,11.1,11.1,0,0,0,.231-2.917V43.866h1.566V49.7a9.209,9.209,0,0,1-.576,3.7,4.357,4.357,0,0,1-1.724,1.948,5.442,5.442,0,0,1-2.891.7,5.507,5.507,0,0,1-2.9-.7,4.317,4.317,0,0,1-1.733-1.963,9.554,9.554,0,0,1-.576-3.8Z"/><path class="cls-1" d="M449.106,43.866h1.528v2.129a6.386,6.386,0,0,1,2.033-1.827,5,5,0,0,1,2.425-.607,4.207,4.207,0,0,1,2.365.677,4.017,4.017,0,0,1,1.522,1.823,9.6,9.6,0,0,1,.493,3.573V55.75h-1.53V50.08a14,14,0,0,0-.17-2.74,3.007,3.007,0,0,0-1.017-1.778,3.1,3.1,0,0,0-1.967-.592,3.8,3.8,0,0,0-2.487.916,4.309,4.309,0,0,0-1.447,2.273,15.8,15.8,0,0,0-.22,3.231v4.36h-1.528Z"/><path class="cls-1" d="M463.06,39.454h1.527v4.412h2.428v1.323h-2.428V55.75H463.06V45.188h-2.083V43.866h2.083Z"/><path class="cls-1" d="M468.793,43.866h1.62l4.083,9.149,3.961-9.149h1.632L473,60.094h-1.614l2.291-5.246Z"/><path class="cls-1" d="M506.405,42.666l-1.265.97a6.953,6.953,0,0,0-2.52-2.069,7.392,7.392,0,0,0-3.227-.706,7.159,7.159,0,0,0-3.56.924,6.646,6.646,0,0,0-2.538,2.48,6.841,6.841,0,0,0-.9,3.5,6.579,6.579,0,0,0,2.014,4.907,6.989,6.989,0,0,0,5.085,1.963,7.15,7.15,0,0,0,5.649-2.642l1.265.96a8.093,8.093,0,0,1-3,2.365,9.4,9.4,0,0,1-4.015.836,8.349,8.349,0,0,1-6.651-2.805,8.476,8.476,0,0,1-2.041-5.725,7.965,7.965,0,0,1,2.472-5.937,8.538,8.538,0,0,1,6.2-2.406,9.1,9.1,0,0,1,4.067.891A7.87,7.87,0,0,1,506.405,42.666Z"/><path class="cls-1" d="M514.234,43.561a5.874,5.874,0,0,1,4.552,1.989,6.374,6.374,0,0,1-.092,8.643,6.287,6.287,0,0,1-8.93,0,6.372,6.372,0,0,1-.092-8.636A5.9,5.9,0,0,1,514.234,43.561Zm-.006,1.5a4.394,4.394,0,0,0-3.274,1.407,4.7,4.7,0,0,0-1.371,3.406,4.838,4.838,0,0,0,.624,2.4,4.455,4.455,0,0,0,1.688,1.719,4.791,4.791,0,0,0,4.668,0,4.416,4.416,0,0,0,1.691-1.719,4.838,4.838,0,0,0,.624-2.4,4.693,4.693,0,0,0-1.376-3.406A4.42,4.42,0,0,0,514.228,45.058Z"/><path class="cls-1" d="M522.261,39.279h1.53V55.75h-1.53Z"/><path class="cls-1" d="M526.742,39.279h1.524V55.75h-1.524Z"/><path class="cls-1" d="M540.686,51.807l1.29.677a7.086,7.086,0,0,1-1.468,2.008,5.815,5.815,0,0,1-1.869,1.166,6.589,6.589,0,0,1-2.348.4,5.67,5.67,0,0,1-4.547-1.9,6.436,6.436,0,0,1-1.64-4.31,6.349,6.349,0,0,1,1.385-4.03,5.684,5.684,0,0,1,4.716-2.25,5.852,5.852,0,0,1,4.85,2.3,6.429,6.429,0,0,1,1.316,4.061h-10.7a4.85,4.85,0,0,0,1.322,3.4,4.22,4.22,0,0,0,3.162,1.323,5.03,5.03,0,0,0,1.765-.317,4.639,4.639,0,0,0,1.459-.836A6.985,6.985,0,0,0,540.686,51.807Zm0-3.2a5.029,5.029,0,0,0-.892-1.952,4.238,4.238,0,0,0-1.548-1.181,4.742,4.742,0,0,0-2.023-.447,4.353,4.353,0,0,0-3,1.125,5.062,5.062,0,0,0-1.391,2.455Z"/><path class="cls-1" d="M555.08,43.865h1.531v9.466a11.149,11.149,0,0,1-.44,3.661,4.737,4.737,0,0,1-2.089,2.524,6.851,6.851,0,0,1-3.568.885,8.135,8.135,0,0,1-2.746-.432,5.494,5.494,0,0,1-1.982-1.162,6.948,6.948,0,0,1-1.408-2.13h1.661a4.376,4.376,0,0,0,1.747,1.746,5.64,5.64,0,0,0,2.659.57,5.482,5.482,0,0,0,2.642-.582,3.631,3.631,0,0,0,1.536-1.465,6.531,6.531,0,0,0,.457-2.847v-.61a5.816,5.816,0,0,1-2.109,1.676,6.26,6.26,0,0,1-5.729-.229,5.747,5.747,0,0,1-2.229-2.189,5.974,5.974,0,0,1-.788-3.026,6.186,6.186,0,0,1,6.142-6.16,5.634,5.634,0,0,1,2.487.552,6.822,6.822,0,0,1,2.225,1.818Zm-4.514,1.168a4.861,4.861,0,0,0-2.413.629A4.54,4.54,0,0,0,546.41,47.4a4.755,4.755,0,0,0-.632,2.4,4.334,4.334,0,0,0,1.31,3.233,4.654,4.654,0,0,0,3.4,1.278,4.606,4.606,0,0,0,3.387-1.268,4.459,4.459,0,0,0,1.287-3.331,4.843,4.843,0,0,0-.588-2.4,4.314,4.314,0,0,0-1.673-1.665A4.661,4.661,0,0,0,550.567,45.033Z"/><path class="cls-1" d="M569.126,51.806l1.29.677a7.045,7.045,0,0,1-1.469,2.008,5.782,5.782,0,0,1-1.869,1.166,6.563,6.563,0,0,1-2.35.4,5.671,5.671,0,0,1-4.544-1.9,6.421,6.421,0,0,1-1.643-4.31,6.352,6.352,0,0,1,1.388-4.03,5.681,5.681,0,0,1,4.712-2.25,5.852,5.852,0,0,1,4.853,2.3,6.386,6.386,0,0,1,1.31,4.061H560.112a4.832,4.832,0,0,0,1.329,3.4,4.2,4.2,0,0,0,3.156,1.323,5.011,5.011,0,0,0,1.765-.317,4.688,4.688,0,0,0,1.465-.836A7.425,7.425,0,0,0,569.126,51.806Zm0-3.2a5.018,5.018,0,0,0-.895-1.952,4.214,4.214,0,0,0-1.545-1.181,4.755,4.755,0,0,0-2.024-.447,4.352,4.352,0,0,0-3,1.125,5.079,5.079,0,0,0-1.39,2.455Z"/><path class="cls-1" d="M330.651,68.07a5.379,5.379,0,0,0-2.114-.446,1.446,1.446,0,0,0-1.638,1.444c0,1.8,4.556,1.042,4.556,4.525,0,2.278-1.8,3.141-3.9,3.141a9.113,9.113,0,0,1-2.664-.4l.193-1.875a5.007,5.007,0,0,0,2.352.639c.789,0,1.846-.4,1.846-1.339,0-1.978-4.555-1.162-4.555-4.6,0-2.321,1.8-3.171,3.631-3.171a7.812,7.812,0,0,1,2.487.373Z"/><path class="cls-1" d="M332.936,66.164h2.084v6c0,1.773.567,2.931,2.158,2.931s2.159-1.158,2.159-2.931v-6h2.084V72.8c0,2.783-1.577,3.93-4.242,3.93s-4.242-1.147-4.242-3.93Z"/><path class="cls-1" d="M351.206,76.4a10.466,10.466,0,0,1-2.367.329c-3.364,0-5.7-1.682-5.7-5.2,0-3.557,2.174-5.551,5.7-5.551a6.889,6.889,0,0,1,2.353.431l-.15,1.757a4.281,4.281,0,0,0-2.247-.551,3.471,3.471,0,0,0-3.483,3.766,3.421,3.421,0,0,0,3.527,3.705,5.764,5.764,0,0,0,2.277-.431Z"/><path class="cls-1" d="M360.3,76.4a10.467,10.467,0,0,1-2.367.329c-3.364,0-5.7-1.682-5.7-5.2,0-3.557,2.174-5.551,5.7-5.551a6.889,6.889,0,0,1,2.353.431l-.149,1.757a4.289,4.289,0,0,0-2.248-.551,3.471,3.471,0,0,0-3.483,3.766,3.422,3.422,0,0,0,3.527,3.705,5.78,5.78,0,0,0,2.278-.431Z"/><path class="cls-1" d="M361.83,66.164h6.132V67.8h-4.048v2.561h3.706V72h-3.706v2.918h4.078v1.637H361.83Z"/><path class="cls-1" d="M375.686,68.07a5.388,5.388,0,0,0-2.114-.446,1.446,1.446,0,0,0-1.638,1.444c0,1.8,4.555,1.042,4.555,4.525,0,2.278-1.8,3.141-3.9,3.141a9.112,9.112,0,0,1-2.664-.4l.193-1.875a5.007,5.007,0,0,0,2.352.639c.788,0,1.845-.4,1.845-1.339,0-1.978-4.555-1.162-4.555-4.6,0-2.321,1.8-3.171,3.632-3.171a7.816,7.816,0,0,1,2.487.373Z"/><path class="cls-1" d="M383.517,68.07a5.391,5.391,0,0,0-2.114-.446,1.446,1.446,0,0,0-1.638,1.444c0,1.8,4.555,1.042,4.555,4.525,0,2.278-1.8,3.141-3.9,3.141a9.122,9.122,0,0,1-2.665-.4l.194-1.875a5,5,0,0,0,2.351.639c.789,0,1.846-.4,1.846-1.339,0-1.978-4.555-1.162-4.555-4.6,0-2.321,1.8-3.171,3.633-3.171a7.806,7.806,0,0,1,2.485.373Z"/><path class="cls-1" d="M390.177,66.164h2.189l1.935,8.306h.03l1.771-8.306h2.828l1.832,8.306h.03l1.95-8.306h2.024l-2.709,10.39h-2.68L397.5,68.248h-.03l-1.846,8.306h-2.693Z"/><path class="cls-1" d="M406.216,66.164H408.3v10.39h-2.084Z"/><path class="cls-1" d="M412.587,67.8h-2.976V66.164h8.038V67.8h-2.976v8.753h-2.085Z"/><path class="cls-1" d="M418.972,66.164h2.085v4.2h4.168v-4.2h2.084v10.39h-2.084V72h-4.168v4.555h-2.085Z"/><path class="cls-1" d="M429.094,66.164h2.085v10.39h-2.085Z"/><path class="cls-1" d="M433.028,66.164h2.561l3.959,7.771h.031V66.164h1.993v10.39h-2.545l-3.975-7.771h-.028v7.771h-2Z"/><path class="cls-1" d="M448.113,66.164h2.247c2.234,0,4.9-.074,4.9,2.813a2.377,2.377,0,0,1-2.144,2.411v.031c.565.043.893.609,1.1,1.07l1.666,4.064h-2.321l-1.25-3.245c-.3-.774-.567-1.073-1.445-1.073h-.67v4.318h-2.084ZM450.2,70.6h.685c1.026,0,2.2-.15,2.2-1.444,0-1.25-1.162-1.355-2.2-1.355H450.2Z"/><path class="cls-1" d="M457.384,66.164h6.133V67.8h-4.05v2.561h3.707V72h-3.707v2.918h4.078v1.637h-6.162Z"/><path class="cls-1" d="M469.08,66.164h2.351l4.08,10.39H473.2l-.894-2.382H468.1l-.908,2.382h-2.159Zm1.147,2.084h-.03l-1.5,4.288h3.036Z"/><path class="cls-1" d="M483.91,76.4a10.459,10.459,0,0,1-2.366.329c-3.365,0-5.7-1.682-5.7-5.2,0-3.557,2.173-5.551,5.7-5.551a6.874,6.874,0,0,1,2.351.431l-.149,1.757a4.284,4.284,0,0,0-2.247-.551,3.472,3.472,0,0,0-3.484,3.766,3.422,3.422,0,0,0,3.529,3.705,5.773,5.773,0,0,0,2.277-.431Z"/><path class="cls-1" d="M485.5,66.164h2.084v4.2h4.168v-4.2h2.085v10.39h-2.085V72H487.58v4.555H485.5Z"/><path class="cls-1" d="M495.618,74.471H497.7v2.084h-2.084Z"/></svg>