<svg id="Layer_1" data-name="Layer 1" xmlns="http://www.w3.org/2000/svg" viewBox="0 0 725.078 217.036"><defs><style>.cls-1{fill:#fff;}.cls-2{fill:#8dc640;}</style></defs><title>header-5-bottom</title><path class="cls-1" d="M9.93,28.8H22.748v9.027H9.93V63.912H0V.723H26.269V9.75H9.93Z"/><path class="cls-1" d="M30.241,15.888C30.241,5.778,35.567,0,45.316,0S60.391,5.777,60.391,15.888V48.747c0,10.11-5.325,15.888-15.075,15.888S30.241,58.858,30.241,48.747Zm9.93,33.491c0,4.514,1.986,6.229,5.146,6.229s5.146-1.715,5.146-6.229V15.256c0-4.513-1.985-6.229-5.146-6.229s-5.146,1.715-5.146,6.229Z"/><path class="cls-1" d="M87.565,63.912c-.542-1.625-.9-2.617-.9-7.763V46.218c0-5.867-1.986-8.034-6.5-8.034H76.732V63.911H66.8V.723H81.788C92.079.723,96.5,5.507,96.5,15.256v4.965c0,6.5-2.076,10.743-6.5,12.819,4.965,2.076,6.59,6.86,6.59,13.451V56.24c0,3.069.09,5.326,1.083,7.673ZM76.732,9.749V29.157h3.882c3.7,0,5.958-1.625,5.958-6.68V16.248c0-4.514-1.534-6.5-5.055-6.5Z"/><path class="cls-1" d="M138.119,45.587,144.89.723H158.7V63.912h-9.388V18.6l-6.86,45.316h-9.389l-7.4-44.684V63.912H117V.723h13.812Z"/><path class="cls-1" d="M198.06,63.912H188.039l-1.715-11.464H174.138l-1.715,11.464h-9.117L173.416.723h14.533ZM175.4,43.873h9.569l-4.785-31.956Z"/><path class="cls-1" d="M211.512,18.144V63.912h-8.937V.723h12.457l10.2,37.823V.723h8.847V63.912h-10.2Z"/><path class="cls-1" d="M250.51,42.973,237.962.723h10.381l7.583,28.8,7.583-28.8h9.479l-12.549,42.25V63.915h-9.93Z"/><path class="cls-1" d="M269.739,63.912V54.344h9.569v8.575L274.975,72.94h-4.062l2.618-9.027Z"/><path class="cls-1" d="M329.319,40.351v8.4c0,10.11-5.056,15.888-14.8,15.888s-14.8-5.777-14.8-15.888V15.888c0-10.11,5.056-15.888,14.8-15.888s14.8,5.777,14.8,15.888v6.139H319.93V15.256c0-4.513-1.985-6.229-5.146-6.229s-5.146,1.715-5.146,6.229V49.379c0,4.514,1.986,6.139,5.146,6.139s5.146-1.625,5.146-6.139V40.352Z"/><path class="cls-1" d="M334.555,15.888C334.555,5.778,339.881,0,349.63,0s15.075,5.777,15.075,15.888V48.747c0,10.11-5.325,15.888-15.075,15.888s-15.075-5.777-15.075-15.888Zm9.93,33.491c0,4.514,1.986,6.229,5.146,6.229s5.146-1.715,5.146-6.229V15.256c0-4.513-1.985-6.229-5.146-6.229s-5.146,1.715-5.146,6.229Z"/><path class="cls-1" d="M371.116.723h9.93V54.885h16.34v9.027h-26.27Z"/><path class="cls-1" d="M401.719.723h9.93V54.885h16.34v9.027h-26.27Z"/><path class="cls-1" d="M442.251,27.352h13.631v9.027H442.251V54.884H459.4v9.027H432.321V.723H459.4V9.75H442.251Z"/><path class="cls-1" d="M480.437,28.706h13.9V48.747c0,10.11-5.056,15.888-14.8,15.888s-14.8-5.777-14.8-15.888V15.888c0-10.11,5.056-15.888,14.8-15.888s14.8,5.777,14.8,15.888v6.139H484.95V15.256c0-4.513-1.985-6.229-5.146-6.229s-5.146,1.715-5.146,6.229V49.379c0,4.514,1.986,6.139,5.146,6.139s5.146-1.625,5.146-6.139V37.733h-4.514Z"/><path class="cls-1" d="M510.68,27.352h13.631v9.027H510.68V54.884h17.151v9.027H500.75V.723h27.081V9.75H510.68Z"/><path class="cls-1" d="M561.324,0c9.658,0,14.623,5.777,14.623,15.888v1.985H566.56V15.255c0-4.513-1.806-6.229-4.965-6.229s-4.965,1.715-4.965,6.229c0,13,19.408,15.437,19.408,33.491,0,10.11-5.056,15.888-14.8,15.888s-14.8-5.777-14.8-15.888V44.864h9.389v4.514c0,4.514,1.985,6.139,5.146,6.139s5.146-1.625,5.146-6.139c0-13-19.408-15.437-19.408-33.491C546.7,5.773,551.665,0,561.324,0Z"/><path class="cls-1" d="M591.655,27.352h13.631v9.027H591.655V54.884h17.152v9.027H581.726V.723h27.082V9.75H591.655Z"/><path class="cls-1" d="M624.877,27.352h13.631v9.027H624.877V54.884h17.151v9.027H614.947V.723h27.081V9.75H624.877Z"/><path class="cls-1" d="M669.2,45.587,675.971.723h13.812V63.912h-9.389V18.6l-6.86,45.316h-9.388l-7.4-44.684V63.912H648.08V.723h13.81Z"/><path class="cls-1" d="M710.366,0c9.659,0,14.624,5.777,14.624,15.888v1.985H715.6V15.255c0-4.513-1.8-6.229-4.965-6.229s-4.965,1.715-4.965,6.229c0,13,19.408,15.437,19.408,33.491,0,10.11-5.055,15.888-14.8,15.888s-14.8-5.777-14.8-15.888V44.864h9.388v4.514c0,4.514,1.986,6.139,5.146,6.139s5.146-1.625,5.146-6.139c0-13-19.408-15.437-19.408-33.491C695.742,5.773,700.707,0,710.366,0Z"/><path class="cls-2" d="M109.993,73.428c-16.133,0-27.08,16.709-27.08,31.834a24.645,24.645,0,0,0,1.729,9.795C74.7,120.386,73.695,131.766,73.695,141.7c0,19.3,7.778,33.851,22.471,33.851,21.318,0,38.027-39.324,38.027-69C134.192,90.713,129.871,73.428,109.993,73.428Zm10.8,22.327c0,27.944-13.252,76.343-26.648,76.486-5.762-2.448-8.21-10.659-8.21-21.318-.288-7.778,1.584-16.709,4.177-25.5l.576-2.017c2.593,2.017,7.346,4.9,11.523,4.9,1.152,0,1.584-.433,1.584-1.009a2.774,2.774,0,0,0-1.44-2.16c-4.753-3.313-6.77-9.363-6.77-16.133,0-14.116,8.787-31.113,20.022-31.258,5.477,3.893,5.193,11.814,5.193,18.009Z"/><path class="cls-2" d="M215.43,102.381c1.584-5.762,3.745-12.1,3.745-15.7,0-4.9-3.889-7.2-7.49-7.2-2.737,0-5.186,1.152-5.906,3.6-1.873,5.9-3.6,12.1-5.33,18.581-2.3-.144-4.609-.144-6.77-.144-1.584,0-2.593,2.3-2.593,4.465,0,1.873.72,3.745,2.449,3.89l4.609.432c-3.12,12.749-5.688,25.384-7.192,35.419-1.889,3.813-10.365,21.334-15.421,21.334-1.3,0-1.873-1.3-1.873-3.889,0-9.939,12.1-50.271,12.1-56.033a5.9,5.9,0,0,0-5.888-5.912q-.153,0-.306.007c-3.457,0-6.914,2.16-7.922,6.914-6.482,29.816-11.956,57.617-20.31,57.617-2.161,0-3.169-2.161-3.169-6.05,0-9.363,5.33-28.521,9.939-51.424a4.9,4.9,0,0,0,.144-1.44c0-3.457-3.025-5.329-6.194-5.329A7.647,7.647,0,0,0,144.274,108c-2.881,17.285-8.931,38.172-8.931,52.144,0,9.219,2.737,15.413,10.8,15.413,5.906,0,10.659-4.609,14.548-12.1.288,9.8,5.474,12.1,9.795,12.1,8.07,0,14.918-10.5,19.186-19-.114,1.549-.173,2.945-.173,4.162,0,10.8,4.753,14.837,10.371,14.837,12.1,0,22.039-23.623,24.055-28.665a6.46,6.46,0,0,0,.576-2.448c0-1.009-.432-1.585-1.008-1.585-.72,0-1.44.864-2.449,2.593-4.033,6.482-11.379,22.327-17,22.327-2.161,0-3.025-2.3-3.025-6.05,0-10.371,6.77-32.7,12.244-51.712,10.515-1.152,15.845-2.593,15.845-4.609S222.488,102.957,215.43,102.381Z"/><path class="cls-2" d="M353.273,83.367c0-7.923-3.457-11.235-5.618-12.388-.576-2.3-3.169-4.178-6.626-4.178-19.734,0-27.512,35.579-36.011,75.911q-.332,1.573-.657,3.132a16,16,0,0,1-13.889,8.68c4.753-9.651,7.634-21.175,7.634-31.113,0-12.388-4.753-22.183-16.277-22.183-9.075,0-14.98,6.914-17.717,15.988-3.6-.576-6.05,2.881-7.2,5.474a69.653,69.653,0,0,0-6.482,28.953c0,13.252,4.753,24.055,16.277,24.055,8.21,0,15.845-7.058,21.462-17a22.227,22.227,0,0,0,14.736-5.74c-3.319,16.532-5.807,31.7-5.807,43.191,0,12.82,3.169,20.887,11.812,20.887,10.371,0,14.116-8.931,14.116-18.582,0-10.371-4.177-21.462-9.363-23.911,17.573-3.312,31.257-10.515,38.315-27.656a5.653,5.653,0,0,0,.432-2.017c0-1.008-.432-1.584-1.008-1.584-.72,0-1.584.72-2.3,2.16-7.49,15.557-20.166,20.022-36.011,22.039,1.3-7.059,2.593-13.108,3.745-19.014C330.658,147.9,353.273,117.793,353.273,83.367ZM343.91,72.273c2.737,0,2.881,2.161,2.881,5.474,0,13.54-15.845,54.16-29.1,65.972C328.786,97.483,337.428,72.273,343.91,72.273ZM270.6,168.638a4,4,0,0,1-1.3.144c-4.753,0-6.626-5.762-6.626-13.4a65.24,65.24,0,0,1,1.584-13.54c2.3,6.914,6.626,12.819,14.26,15.412-2.445,6.489-5.181,10.954-7.918,11.387Zm9.651-16.421c-6.77-4.033-9.363-12.532-9.363-21.03,0-12.532,5.186-24.487,10.083-24.487,3.457,0,4.753,5.474,4.753,12.964,0,9.364-2.3,22.328-5.473,32.556Zm34.712,43.933c0,9.507-3.313,16.421-6.914,16.421-1.44,0-2.449-1.872-2.449-4.9s.72-6.914,5.474-29.24a44.4,44.4,0,0,1,3.889,17.721Z"/><path class="cls-2" d="M649.851,144.3q0-1.3-.863-1.3c-.721,0-1.873,1.008-2.594,2.448-6.049,11.668-10.8,22.759-15.557,22.759-1.872,0-2.592-1.3-2.592-3.6,0-9.363,11.955-34.282,11.955-50.271,0-5.329-2.16-12.1-10.659-12.1-6.626,0-12.964,8.354-18.149,19.734,7.059-30.825,11.092-38.892,11.092-43.5,0-3.745-3.746-6.05-7.2-6.05-2.592,0-4.9,1.152-5.617,3.745-6.218,20.939-12.551,49.189-16.348,69.428-4.082,8.232-14.4,22.327-25.712,22.327-7.634,0-10.515-5.9-10.515-15.557,0-17.861,10.8-45.085,18.869-45.085,1.44,0,3.457,2.593,3.457,5.617,0,11.956-9.074,16.854-9.074,22.615,0,2.593,3.168,4.465,6.481,4.465,7.778,0,10.659-8.931,10.659-19.3,0-7.778-2.449-15.269-8.931-16.421a12.608,12.608,0,0,0-7.778-2.736c-14.5,0-26.322,23.589-27.669,44.256-6.68,13.762-11.1,21.283-14.1,21.283-1.3,0-2.018-1.44-2.018-3.6,0-6.914,5.042-22.471,8.932-40.765a10.935,10.935,0,0,0,.144-2.16,8.172,8.172,0,0,0-7.923-8.354h-.863c-.289-4.466-3.89-10.659-9.651-10.659-14.071,0-25.33,23.486-28.4,43.977-3.752,5.938-11.1,21.418-24.747,21.418-8.93,0-9.506-10.947-9.506-17.285a18.8,18.8,0,0,0,5.473.864c15.27,0,25.641-19.446,25.641-33.274,0-7.058-2.737-12.531-8.787-13.252-1.729-1.44-5.041-2.448-8.211-2.448-13.921,0-25.515,23.551-27.273,44.036-4.044,8.349-11.349,20.207-16.227,20.207-5.186,0-5.474-14.837-12.244-24.775,21.463-1.729,31.546-18.582,31.546-34.57,0-17.718-14.837-33.706-33.418-33.706-19.014,0-32.554,14.26-32.554,20.454,0,4.9,4.609,10.227,8.066,10.227a3.122,3.122,0,0,0,3.025-2.16c5.9-13.108,17.285-20.742,28.664-20.742a24.125,24.125,0,0,1,10.8,2.448,42.572,42.572,0,0,1,3.746,17.718c0,16.276-8.643,32.121-23.336,36.3a14.9,14.9,0,0,0-2.448-1.729c4.033-14.4,8.786-30.249,12.388-43.646a2.441,2.441,0,0,0,.145-1.008c0-2.737-3.313-4.466-6.627-4.466-2.736,0-5.473,1.3-6.338,4.178-4.9,16.709-9.219,30.537-12.531,43.068-2.736.864-4.033,2.737-4.033,4.609a4.073,4.073,0,0,0,1.873,3.457c-2.161,9.219-5.186,24.487-5.186,27.944a5.584,5.584,0,0,0,5.4,5.762q.181.006.362,0a4.825,4.825,0,0,0,5.041-3.889c.721-4.754,3.313-14.261,6.482-25.5,5.762,16.277,5.9,30.105,16.853,30.105,8.967,0,15.821-11.468,20.422-21.665.793,12.1,5.973,21.52,17.318,21.52,13.683,0,22.94-8.652,29.4-20.754-.006.34-.018.686-.018,1.021,0,11.235,3.313,19.59,11.092,19.59,4.609,0,10.083-6.194,14.836-15.989a19.422,19.422,0,0,0-.144,2.737c0,10.8,5.329,13.252,9.795,13.252,8.16,0,15.224-12.781,19.194-21.547,1.056,12.59,6.9,22.124,19.842,22.124,12.5,0,22.215-9.6,28.4-19.64a104.737,104.737,0,0,0-1.6,13.157c0,4.321,2.737,6.338,5.474,6.338,5.762,0,5.33-5.474,8.643-21.03,6.193-26.792,17.573-43.789,21.75-43.789,1.441,0,2.018,1.3,2.018,3.457,0,9.507-11.38,36.155-11.38,48.687,0,8.643,5.474,12.676,11.235,12.676,12.531,0,19.734-23.911,21.75-29.1A7.7,7.7,0,0,0,649.851,144.3ZM474.7,107.134c2.161,0,2.448,2.449,2.448,4.754,0,11.235-12.243,33.994-20.742,33.994a3.164,3.164,0,0,1-1.152-.145C456.979,128.452,466.487,107.134,474.7,107.134Zm44.364,28.953c-3.6,15.988-9.939,29.673-15.269,29.673-1.729,0-2.448-2.737-2.448-7.059,0-15.124,8.786-48.83,18.437-48.83,3.457,0,3.889,3.024,3.889,5.474Z"/><circle class="cls-2" cx="651.239" cy="180.747" r="4.419"/></svg>