<?xml version="1.0" encoding="utf-8"?>
<!-- Generator: Adobe Illustrator 19.1.1, SVG Export Plug-In . SVG Version: 6.00 Build 0)  -->
<svg version="1.1" id="Layer_1" xmlns="http://www.w3.org/2000/svg" xmlns:xlink="http://www.w3.org/1999/xlink" x="0px" y="0px"
	 viewBox="-228.3 229.1 26.6 44.2" style="enable-background:new -228.3 229.1 26.6 44.2;" xml:space="preserve">
<style type="text/css">
	.st0{fill:#FFFFFF;}
</style>
<path class="st0" d="M-209.6,251c-5.6,3.1-6.2,4.4-5.7,7.8h-3.4c-1.8-3-2.4-4.9-2.4-6.5c0-2.8,2.2-4.8,5.7-7.1
	c3.5-2.3,5.3-3.8,5.3-7c0-3.4-2.5-5.7-6.1-5.7c-1.6,0-2.6,0.3-3.4,0.9c0.5,1.1,0.7,2.3,0.7,3.5c0,2.7-1.9,4.9-4.6,4.9
	s-4.9-2.1-4.9-4.8c0-4.2,4.8-7.8,12.7-7.8c7.9,0,14,4.7,14,11.3C-201.7,245.8-205,248.5-209.6,251z"/>
<path class="st0" d="M-216.9,273.3c-2.9,0-5.4-2.1-5.4-5c0-2.9,2.5-4.9,5.4-4.9c2.9,0,5.4,2,5.4,4.9
	C-211.5,271.3-214,273.3-216.9,273.3z"/>
</svg>
