<?xml version="1.0" encoding="utf-8"?>
<!-- Generator: Adobe Illustrator 19.1.1, SVG Export Plug-In . SVG Version: 6.00 Build 0)  -->
<svg version="1.1" id="Layer_1" xmlns="http://www.w3.org/2000/svg" xmlns:xlink="http://www.w3.org/1999/xlink" x="0px" y="0px"
	 viewBox="-160.4 216 169 64.9" style="enable-background:new -160.4 216 169 64.9;" xml:space="preserve">
<style type="text/css">
	.st0{fill:#FFFFFF;}
</style>
<g>
	<g>
		<rect id="XMLID_813_" x="-55.6" y="216" class="st0" width="0.9" height="45.6"/>
		<path id="XMLID_812_" class="st0" d="M-160.2,218.6h23.7v7.4h-8.2v32.9h-7.6V226h-8L-160.2,218.6L-160.2,218.6z"/>
		<path id="XMLID_811_" class="st0" d="M-62.8,225.9l-5.2,5c-3.5-3.8-7.6-5.6-12-5.6c-3.8,0-6.9,1.3-9.5,3.9
			c-2.6,2.6-3.9,5.7-3.9,9.5c0,2.6,0.6,4.9,1.7,6.9s2.7,3.6,4.8,4.8c2.1,1.2,4.4,1.7,6.9,1.7c2.2,0,4.1-0.4,5.9-1.2
			c1.8-0.8,3.8-2.3,5.9-4.4l5,5.3c-2.9,2.9-5.7,4.8-8.2,5.9c-2.6,1.1-5.5,1.6-8.8,1.6c-6.1,0-11.1-1.9-15-5.8s-5.8-8.8-5.8-14.8
			c0-3.9,0.9-7.4,2.6-10.4c1.8-3,4.3-5.5,7.6-7.3s6.8-2.7,10.6-2.7c3.3,0,6.3,0.7,9.4,2.1C-67.5,221.4-65,223.4-62.8,225.9z"/>
		<g id="XMLID_809_">
			<path id="XMLID_810_" class="st0" d="M-99.8,225.9l-5.2,5c-3.5-3.8-7.6-5.6-12-5.6c-3.8,0-6.9,1.3-9.5,3.9
				c-2.6,2.6-3.9,5.7-3.9,9.5c0,2.6,0.6,4.9,1.7,6.9c1.1,2,2.7,3.6,4.8,4.8c2.1,1.2,4.4,1.7,6.9,1.7c2.2,0,4.1-0.4,5.9-1.2
				c1.8-0.8,3.8-2.3,5.9-4.4l5,5.3c-2.9,2.9-5.7,4.8-8.2,5.9c-2.6,1.1-5.5,1.6-8.8,1.6c-6.1,0-11.1-1.9-15-5.8
				c-3.9-3.9-5.8-8.8-5.8-14.8c0-3.9,0.9-7.4,2.6-10.4c1.8-3,4.3-5.5,7.6-7.3c3.6-2.1,7.1-3,10.9-3c3.2,0,6.3,0.7,9.3,2.1
				C-104.5,221.4-101.9,223.4-99.8,225.9z"/>
		</g>
		<path id="XMLID_808_" class="st0" d="M-47.2,219.9v-1.2h6.5v1.1h-2.6v10.6h-1.2v-10.5H-47.2z"/>
		<path id="XMLID_805_" class="st0" d="M-31.7,221.8v8.7h-1.1V229c-0.5,0.6-1,1-1.6,1.3s-1.2,0.5-1.9,0.5c-1.2,0-2.3-0.5-3.2-1.4
			c-0.9-0.9-1.3-2-1.3-3.3c0-1.2,0.5-2.3,1.4-3.2c0.9-0.9,2-1.4,3.2-1.4c0.7,0,1.4,0.2,2,0.5s1.1,0.8,1.5,1.4v-1.7L-31.7,221.8
			L-31.7,221.8z M-36.2,222.6c-0.6,0-1.2,0.2-1.7,0.5c-0.5,0.3-1,0.7-1.2,1.3c-0.3,0.6-0.5,1.1-0.5,1.7c0,0.6,0.2,1.2,0.5,1.7
			c0.3,0.6,0.7,1,1.3,1.3c0.5,0.3,1.1,0.5,1.7,0.5s1.2-0.2,1.7-0.5c0.6-0.3,1-0.7,1.3-1.2s0.5-1.1,0.5-1.8c0-1-0.3-1.9-1-2.5
			C-34.4,223-35.2,222.6-36.2,222.6z"/>
		<path id="XMLID_804_" class="st0" d="M-29.2,221.8h1.1v1.3c0.3-0.5,0.7-0.9,1.1-1.1c0.4-0.2,0.8-0.4,1.2-0.4c0.3,0,0.6,0.1,1,0.3
			l-0.6,1c-0.2-0.1-0.5-0.2-0.6-0.2c-0.4,0-0.7,0.2-1.1,0.5c-0.3,0.3-0.6,0.8-0.8,1.4c-0.1,0.5-0.2,1.5-0.2,3v3h-1.1L-29.2,221.8
			L-29.2,221.8z"/>
		<path id="XMLID_803_" class="st0" d="M-23.4,221.8h1.1v1.3c0.3-0.5,0.7-0.9,1.1-1.1c0.4-0.2,0.8-0.4,1.2-0.4c0.3,0,0.6,0.1,1,0.3
			l-0.6,1c-0.2-0.1-0.5-0.2-0.6-0.2c-0.4,0-0.7,0.2-1.1,0.5c-0.3,0.3-0.6,0.8-0.8,1.4c-0.1,0.5-0.2,1.5-0.2,3v3h-1.1L-23.4,221.8
			L-23.4,221.8z"/>
		<path id="XMLID_800_" class="st0" d="M-10.2,221.8v8.7h-1.1V229c-0.5,0.6-1,1-1.6,1.3s-1.2,0.5-1.9,0.5c-1.2,0-2.3-0.5-3.2-1.4
			c-0.9-0.9-1.3-2-1.3-3.3c0-1.2,0.5-2.3,1.4-3.2c0.9-0.9,2-1.4,3.2-1.4c0.7,0,1.4,0.2,2,0.5s1.1,0.8,1.5,1.4v-1.7L-10.2,221.8
			L-10.2,221.8z M-14.6,222.6c-0.6,0-1.2,0.2-1.7,0.5c-0.5,0.3-1,0.7-1.2,1.3c-0.3,0.6-0.5,1.1-0.5,1.7c0,0.6,0.2,1.2,0.5,1.7
			c0.3,0.6,0.7,1,1.3,1.3c0.5,0.3,1.1,0.5,1.7,0.5c0.6,0,1.2-0.2,1.7-0.5c0.6-0.3,1-0.7,1.3-1.2s0.5-1.1,0.5-1.8c0-1-0.3-1.9-1-2.5
			C-12.9,223-13.7,222.6-14.6,222.6z"/>
		<path id="XMLID_799_" class="st0" d="M-8.1,221.8H-7v1.6c0.5-0.6,1-1.1,1.5-1.4c0.6-0.3,1.1-0.5,1.8-0.5s1.2,0.2,1.7,0.5
			s0.9,0.8,1.1,1.4c0.2,0.6,0.3,1.5,0.3,2.6v4.5h-1.1v-4.2c0-1-0.1-1.7-0.1-2c-0.1-0.6-0.4-1-0.7-1.3c-0.4-0.3-0.8-0.5-1.5-0.5
			s-1.3,0.2-1.8,0.7c-0.6,0.5-0.9,1-1.1,1.7c-0.1,0.5-0.2,1.2-0.2,2.4v3.2H-8L-8.1,221.8L-8.1,221.8z"/>
		<path id="XMLID_798_" class="st0" d="M2.1,218.6h1.1v3.3H5v1H3.2v7.8H2.1v-8H0.6v-1h1.5V218.6z"/>
		<path id="XMLID_797_" class="st0" d="M-36.3,236.1l-0.9,0.7c-0.5-0.6-1.1-1.1-1.7-1.4c-0.6-0.3-1.4-0.5-2.2-0.5
			c-0.9,0-1.7,0.2-2.5,0.6c-0.7,0.4-1.3,1-1.7,1.7c-0.4,0.7-0.6,1.5-0.6,2.4c0,1.4,0.5,2.5,1.4,3.4s2.1,1.4,3.5,1.4
			c1.5,0,2.8-0.6,3.9-1.8l0.9,0.7c-0.6,0.7-1.2,1.3-2.1,1.6c-0.8,0.4-1.7,0.6-2.7,0.6c-2,0-3.5-0.6-4.6-2c-0.9-1.1-1.4-2.4-1.4-4
			c0-1.6,0.6-3,1.7-4.1c1.2-1.1,2.6-1.6,4.3-1.6c1.1,0,2,0.2,2.8,0.6C-37.5,234.8-36.9,235.3-36.3,236.1z"/>
		<path id="XMLID_794_" class="st0" d="M-31.2,236.7c1.3,0,2.3,0.5,3.2,1.4c0.7,0.8,1.1,1.8,1.1,3c0,1.2-0.4,2.2-1.2,3
			c-0.8,0.8-1.8,1.3-3.1,1.3c-1.3,0-2.3-0.4-3.1-1.3c-0.8-0.8-1.2-1.8-1.2-3c0-1.2,0.4-2.1,1.1-3C-33.5,237.1-32.4,236.7-31.2,236.7
			z M-31.2,237.7c-0.9,0-1.6,0.3-2.3,0.9c-0.6,0.6-0.9,1.4-0.9,2.4c0,0.6,0.2,1.2,0.4,1.6c0.3,0.5,0.7,0.9,1.2,1.2s1,0.4,1.6,0.4
			s1.1-0.2,1.6-0.4c0.5-0.3,0.9-0.7,1.2-1.2s0.4-1.1,0.4-1.6c0-0.9-0.3-1.7-0.9-2.4C-29.6,238-30.3,237.7-31.2,237.7z"/>
		<path id="XMLID_793_" class="st0" d="M-25.1,236.9h1.1v3.8c0,0.9,0.1,1.6,0.2,2c0.2,0.5,0.4,0.9,0.8,1.2c0.4,0.3,0.9,0.4,1.5,0.4
			s1.1-0.2,1.5-0.4c0.4-0.3,0.7-0.6,0.8-1.1c0.1-0.3,0.2-1,0.2-2V237h1.1v4c0,1.1-0.2,2-0.4,2.5c-0.3,0.6-0.7,1-1.2,1.3
			s-1.2,0.5-2,0.5s-1.5-0.2-2-0.5s-0.9-0.8-1.2-1.4c-0.3-0.6-0.4-1.5-0.4-2.6V237h0V236.9z"/>
		<path id="XMLID_792_" class="st0" d="M-16,236.9h1.1v1.5c0.4-0.6,0.9-1,1.4-1.3c0.5-0.3,1.1-0.4,1.7-0.4c0.6,0,1.2,0.2,1.6,0.5
			c0.5,0.3,0.8,0.7,1.1,1.3s0.3,1.4,0.3,2.5v4.2h-1.1v-3.9c0-0.9-0.1-1.6-0.1-1.9c-0.1-0.5-0.4-0.9-0.7-1.2
			c-0.4-0.3-0.8-0.4-1.4-0.4c-0.6,0-1.2,0.2-1.7,0.6c-0.5,0.4-0.8,0.9-1,1.6c-0.1,0.4-0.2,1.2-0.2,2.2v3h-1V236.9L-16,236.9z"/>
		<path id="XMLID_791_" class="st0" d="M-6.5,233.9h1.1v3.1h1.7v0.9h-1.7v7.3h-1.1v-7.3h-1.4V237h1.4V233.9z"/>
		<path id="XMLID_790_" class="st0" d="M-2.7,236.9h1.1l2.8,6.3l2.7-6.3H5L0.2,248h-1.1l1.6-3.6L-2.7,236.9z"/>
		<path id="XMLID_789_" class="st0" d="M-37.3,250.6l-0.8,0.6c-0.4-0.6-1-1-1.6-1.3c-0.6-0.3-1.3-0.4-2-0.4c-0.8,0-1.5,0.2-2.3,0.6
			c-0.7,0.4-1.2,0.9-1.6,1.5c-0.4,0.7-0.6,1.4-0.6,2.2c0,1.2,0.4,2.3,1.2,3.1c0.9,0.8,1.9,1.2,3.2,1.2c1.4,0,2.6-0.5,3.6-1.7
			l0.8,0.6c-0.5,0.6-1.2,1.2-1.9,1.5c-0.8,0.3-1.6,0.5-2.5,0.5c-1.8,0-3.2-0.6-4.2-1.8c-0.9-1-1.3-2.2-1.3-3.6
			c0-1.5,0.5-2.7,1.5-3.7c1.1-1,2.4-1.5,3.9-1.5c1,0,1.8,0.2,2.5,0.6C-38.4,249.4-37.8,249.9-37.3,250.6z"/>
		<path id="XMLID_786_" class="st0" d="M-32.3,251.1c1.2,0,2.1,0.4,2.8,1.2s1,1.6,1,2.7s-0.4,2-1.1,2.7c-0.7,0.8-1.7,1.2-2.8,1.2
			c-1.2,0-2.1-0.4-2.8-1.2c-0.7-0.8-1.1-1.7-1.1-2.7c0-1.1,0.3-1.9,1-2.7C-34.4,251.6-33.5,251.1-32.3,251.1z M-32.3,252.1
			c-0.8,0-1.5,0.3-2.1,0.9s-0.9,1.3-0.9,2.2c0,0.5,0.1,1.1,0.4,1.5c0.2,0.5,0.6,0.8,1.1,1.1c0.4,0.2,0.9,0.4,1.4,0.4
			c0.5,0,1-0.1,1.5-0.4c0.4-0.2,0.8-0.6,1.1-1.1c0.2-0.5,0.4-1,0.4-1.5c0-0.8-0.3-1.5-0.9-2.2C-30.8,252.4-31.6,252.1-32.3,252.1z"
			/>
		<path id="XMLID_785_" class="st0" d="M-26.8,248.4h1v10.3h-1V248.4z"/>
		<path id="XMLID_784_" class="st0" d="M-23.6,248.4h1v10.3h-1V248.4z"/>
		<path id="XMLID_781_" class="st0" d="M-14.4,256.3l0.8,0.4c-0.3,0.5-0.6,1-0.9,1.2c-0.3,0.3-0.7,0.6-1.2,0.7s-0.9,0.2-1.5,0.2
			c-1.2,0-2.2-0.4-2.8-1.2c-0.7-0.8-1-1.7-1-2.7s0.3-1.8,0.9-2.5c0.7-1,1.7-1.4,3-1.4c1.2,0,2.3,0.5,3,1.4c0.5,0.7,0.8,1.5,0.8,2.5
			H-20c0,0.9,0.3,1.6,0.8,2.1c0.5,0.6,1.2,0.8,2,0.8c0.4,0,0.8,0,1.1-0.2c0.3-0.1,0.7-0.3,0.9-0.5
			C-14.9,257.1-14.7,256.8-14.4,256.3z M-14.4,254.3c-0.1-0.5-0.3-0.9-0.6-1.2c-0.2-0.3-0.6-0.6-1-0.7c-0.4-0.2-0.8-0.3-1.2-0.3
			c-0.7,0-1.3,0.2-1.9,0.7c-0.4,0.3-0.7,0.9-0.9,1.5H-14.4z"/>
		<path id="XMLID_778_" class="st0" d="M-5.1,251.3h1v6c0,1.1-0.1,1.8-0.3,2.3c-0.2,0.7-0.7,1.2-1.3,1.6c-0.6,0.4-1.3,0.6-2.3,0.6
			c-0.6,0-1.2-0.1-1.7-0.3s-0.9-0.4-1.2-0.7c-0.3-0.3-0.6-0.8-0.9-1.3h1.1c0.3,0.5,0.7,0.9,1.1,1.1c0.4,0.2,1,0.3,1.7,0.3
			s1.2-0.1,1.7-0.4c0.4-0.2,0.8-0.5,1-0.9c0.2-0.4,0.3-1,0.3-1.8v-0.4c-0.4,0.4-0.8,0.8-1.3,1.1c-0.5,0.2-1.1,0.4-1.7,0.4
			c-0.7,0-1.3-0.2-1.9-0.5c-0.6-0.3-1.1-0.8-1.4-1.4c-0.3-0.6-0.5-1.2-0.5-1.9s0.2-1.3,0.5-1.9c0.3-0.6,0.8-1.1,1.4-1.4
			s1.2-0.5,1.9-0.5c0.6,0,1.1,0.1,1.6,0.3c0.5,0.2,1,0.6,1.4,1.2L-5.1,251.3L-5.1,251.3z M-7.9,252c-0.5,0-1.1,0.1-1.5,0.4
			c-0.5,0.2-0.8,0.6-1.1,1.1s-0.4,1-0.4,1.5c0,0.8,0.3,1.5,0.8,2s1.2,0.8,2.1,0.8c0.9,0,1.6-0.3,2.1-0.8s0.8-1.2,0.8-2.1
			c0-0.6-0.1-1.1-0.4-1.5c-0.2-0.4-0.6-0.8-1.1-1.1C-6.9,252.2-7.4,252-7.9,252z"/>
		<path id="XMLID_775_" class="st0" d="M3.8,256.3l0.8,0.4c-0.3,0.5-0.6,1-0.9,1.2c-0.3,0.3-0.7,0.6-1.2,0.7s-0.9,0.2-1.5,0.2
			c-1.2,0-2.2-0.4-2.8-1.2c-0.6-0.8-1-1.7-1-2.7s0.3-1.8,0.9-2.5c0.7-1,1.7-1.4,3-1.4s2.3,0.5,3,1.4c0.5,0.7,0.8,1.5,0.8,2.5h-6.7
			c0,0.9,0.3,1.6,0.8,2.1c0.5,0.6,1.2,0.8,2,0.8c0.4,0,0.8,0,1.1-0.2c0.3-0.1,0.7-0.3,0.9-0.5C3.2,257.1,3.5,256.8,3.8,256.3z
			 M3.8,254.3c-0.1-0.5-0.3-0.9-0.6-1.2c-0.2-0.3-0.6-0.6-1-0.7c-0.4-0.2-0.8-0.3-1.2-0.3c-0.7,0-1.3,0.2-1.9,0.7
			c-0.4,0.3-0.7,0.9-0.9,1.5H3.8z"/>
		<g id="XMLID_751_">
			<path id="XMLID_774_" class="st0" d="M-154.5,272.2c-0.7-0.3-1.4-0.5-2.1-0.5s-1.6,0.3-1.6,1.4c0,1.8,4.6,1.1,4.6,4.5
				c0,2.3-1.8,3.1-3.9,3.1c-1.1,0-1.6-0.2-2.7-0.4l0.2-1.8c0.7,0.4,1.5,0.6,2.4,0.6c0.8,0,1.8-0.4,1.8-1.3c0-2-4.6-1.1-4.6-4.6
				c0-2.3,1.8-3.1,3.6-3.1c0.9,0,1.8,0.2,2.4,0.4L-154.5,272.2z"/>
			<path id="XMLID_773_" class="st0" d="M-152.2,270.4h2.1v6c0,1.8,0.5,2.9,2.1,2.9c1.6,0,2.1-1.1,2.1-2.9v-6h2.1v6.6
				c0,2.7-1.6,3.9-4.2,3.9c-2.7,0-4.2-1.1-4.2-3.9C-152.2,277-152.2,270.4-152.2,270.4z"/>
			<path id="XMLID_772_" class="st0" d="M-134.4,280.5c-0.8,0.2-1.6,0.3-2.4,0.3c-3.4,0-5.6-1.7-5.6-5.2s2.1-5.6,5.6-5.6
				c0.7,0,1.6,0.2,2.4,0.5l-0.2,1.8c-0.8-0.5-1.5-0.5-2.2-0.5c-2.1,0-3.5,1.6-3.5,3.7s1.3,3.7,3.5,3.7c0.8,0,1.8-0.2,2.3-0.5
				L-134.4,280.5z"/>
			<path id="XMLID_771_" class="st0" d="M-125.7,280.5c-0.8,0.2-1.6,0.3-2.4,0.3c-3.4,0-5.6-1.7-5.6-5.2s2.1-5.6,5.6-5.6
				c0.7,0,1.6,0.2,2.4,0.5l-0.2,1.8c-0.8-0.5-1.5-0.5-2.2-0.5c-2.1,0-3.5,1.6-3.5,3.7s1.3,3.7,3.5,3.7c0.8,0,1.8-0.2,2.3-0.5
				L-125.7,280.5z"/>
			<path id="XMLID_770_" class="st0" d="M-124.1,270.4h6.1v1.6h-4v2.5h3.7v1.6h-3.7v3h4v1.6h-6.2L-124.1,270.4L-124.1,270.4z"/>
			<path id="XMLID_769_" class="st0" d="M-110.7,272.2c-0.7-0.3-1.4-0.5-2.1-0.5s-1.6,0.3-1.6,1.4c0,1.8,4.6,1.1,4.6,4.5
				c0,2.3-1.8,3.1-3.9,3.1c-1.1,0-1.6-0.2-2.7-0.4l0.2-1.9c0.7,0.4,1.5,0.6,2.4,0.6c0.8,0,1.8-0.4,1.8-1.3c0-2-4.6-1.1-4.6-4.6
				c0-2.3,1.8-3.1,3.6-3.1c0.9,0,1.8,0.2,2.4,0.4L-110.7,272.2z"/>
			<path id="XMLID_768_" class="st0" d="M-103.3,272.2c-0.7-0.3-1.4-0.5-2.1-0.5s-1.6,0.3-1.6,1.4c0,1.8,4.6,1.1,4.6,4.5
				c0,2.3-1.8,3.1-3.9,3.1c-1.1,0-1.6-0.2-2.7-0.4l0.2-1.9c0.7,0.4,1.5,0.6,2.4,0.6c0.8,0,1.8-0.4,1.8-1.3c0-2-4.6-1.1-4.6-4.6
				c0-2.3,1.8-3.1,3.6-3.1c0.9,0,1.8,0.2,2.4,0.4L-103.3,272.2z"/>
			<path id="XMLID_767_" class="st0" d="M-96.7,270.4h2.2l1.9,8.3l0,0l1.8-8.3h2.8l1.8,8.3l0,0l1.9-8.3h2l-2.7,10.4h-2.7l-1.9-8.3
				l0,0l-1.8,8.3H-94L-96.7,270.4z"/>
			<path id="XMLID_766_" class="st0" d="M-81.1,270.4h2.1v10.4h-2.1V270.4z"/>
			<path id="XMLID_765_" class="st0" d="M-74.7,272h-3v-1.6h8v1.6h-3v8.7h-2.1L-74.7,272L-74.7,272z"/>
			<path id="XMLID_764_" class="st0" d="M-68.4,270.4h2.1v4.1h4.1v-4.2h2.1v10.4h-2v-4.6h-4.1v4.6h-2.1L-68.4,270.4L-68.4,270.4z"/>
			<path id="XMLID_763_" class="st0" d="M-58.2,270.4h2.1v10.4h-2.1V270.4z"/>
			<path id="XMLID_762_" class="st0" d="M-54.3,270.4h2.5l4,7.8l0,0v-7.8h2v10.4h-2.5l-4-7.8l0,0v7.8h-2V270.4L-54.3,270.4z"/>
			<path id="XMLID_759_" class="st0" d="M-39.3,270.4h2.2c2.2,0,4.9-0.1,4.9,2.8c0,1.2-0.8,2.2-2.1,2.4l0,0c0.5,0.1,0.9,0.6,1.1,1.1
				l1.7,4h-2.3l-1.2-3.2c-0.3-0.8-0.5-1.1-1.4-1.1h-0.7v4.3h-2.1L-39.3,270.4L-39.3,270.4z M-37.3,274.8h0.7c1,0,2.2-0.2,2.2-1.4
				c0-1.2-1.1-1.4-2.2-1.4h-0.7V274.8z"/>
			<path id="XMLID_758_" class="st0" d="M-30.5,270.4h6.1v1.6h-4v2.5h3.7v1.6h-3.7v3h4v1.6h-6.1V270.4z"/>
			<path id="XMLID_755_" class="st0" d="M-19.2,270.4h2.4l4,10.4h-2.3l-0.9-2.4h-4.2l-0.9,2.4h-2.1L-19.2,270.4z M-18,272.4
				L-18,272.4l-1.5,4.3h3.1L-18,272.4z"/>
			<path id="XMLID_754_" class="st0" d="M-4.8,280.5c-0.8,0.2-1.6,0.3-2.4,0.3c-3.4,0-5.6-1.7-5.6-5.2s2.1-5.6,5.6-5.6
				c0.7,0,1.6,0.2,2.4,0.5l-0.2,1.8c-0.8-0.5-1.5-0.5-2.2-0.5c-2.1,0-3.5,1.6-3.5,3.7s1.3,3.7,3.5,3.7c0.8,0,1.8-0.2,2.3-0.5
				L-4.8,280.5z"/>
			<path id="XMLID_753_" class="st0" d="M-3.2,270.4h2.1v4.1H3v-4.2h2.1v10.4H3v-4.6h-4.1v4.6h-2.1L-3.2,270.4L-3.2,270.4z"/>
			<path id="XMLID_752_" class="st0" d="M6.5,278.6h2.1v2.1H6.5V278.6z"/>
		</g>
	</g>
</g>
</svg>
