<?xml version="1.0" encoding="utf-8"?>
<!-- Generator: Adobe Illustrator 19.1.1, SVG Export Plug-In . SVG Version: 6.00 Build 0)  -->
<svg version="1.1" id="Layer_1" xmlns="http://www.w3.org/2000/svg" xmlns:xlink="http://www.w3.org/1999/xlink" x="0px" y="0px"
	 viewBox="-227.4 234.2 26.2 29.7" style="enable-background:new -227.4 234.2 26.2 29.7;" xml:space="preserve">
<style type="text/css">
	.st0{fill:#FFFFFF;}
</style>
<g>
	<path class="st0" d="M-203.6,250.6c1.3,0.1,2.3-0.9,2.4-2.2c0.1-1.3-0.8-2.4-2.1-2.5l-8.4-1.1c0,0,1.7-2.9,1.7-7.3
		c0-2.9-2.1-3.3-3.3-3.3c-1,0-1.2,1.8-1.2,1.8l0,0c-0.2,1.4-0.5,2.4-1.4,4.3c-1.1,2.1-2.6,1.9-4.3,3.8c-0.3,0.3-0.7,0.9-1.1,1.6
		c0,0-0.1,0.1-0.1,0.2c0,0.1-0.1,0.1-0.1,0.2c-0.1,0.1-0.1,0.2-0.2,0.4c-1.1,1.1-2.8,1-3.5,1c-1.4,0-2.2,0.8-2.2,2.2v10
		c0,1.5,0.6,2,2.2,2h2.2c1.1,0,2,0.6,3.3,1.1c1.8,0.6,4.5,1.1,9.1,1.1c0.8,0,3.3,0,3.3,0c0.8,0,1.4-0.4,1.8-0.8
		c0.2-0.2,0.3-0.4,0.4-0.9c0-0.1,0-0.4,0-0.4c0.1-1.3-0.7-1.8-1.2-1.9l0,0l1.4,0.1c1.3,0.1,2.5-0.9,2.5-2.4c0-1.3-1-2.2-2.3-2.2h0.8
		c1.3,0.1,2.3-0.9,2.4-2.2C-201.4,251.8-202.4,250.7-203.6,250.6L-203.6,250.6z"/>
</g>
</svg>
